<?xml version="1.0" encoding="UTF-8"?>
<svg width="65px" height="62px" viewBox="0 0 65 62" version="1.1" xmlns="http://www.w3.org/2000/svg" xmlns:xlink="http://www.w3.org/1999/xlink">
    <defs></defs>
<path fill="#9B5EA5" d="M64,28.9c0-8.8-7-16-15.7-16.3C46.5,5.5,40.1,0.2,32.5,0.2c-7.6,0-14,5.2-15.8,12.3C7.9,12.6,0.7,19.9,0.7,28.8
	c0,4.9,2.2,9.3,5.6,12.3c-0.4,1.3-0.6,2.7-0.6,4.1c0,9,7.3,16.3,16.3,16.3c3.7,0,7.2-1.3,9.9-3.4c2.8,2.3,6.4,3.7,10.3,3.7
	c9,0,16.3-7.3,16.3-16.3c0-1.4-0.2-2.7-0.5-4C61.7,38.5,64,34,64,28.9z M46.8,16.5c0,6.1-3.9,11.4-9.3,13.4
	c-0.3,0.1-0.5,0.2-0.8,0.3c-1,0.3-2,0.5-3.1,0.6c-0.1-0.6-0.1-1.3-0.1-1.9c0-7.5,5.9-13.7,13.2-14.3C46.8,15.3,46.8,15.9,46.8,16.5z
	 M42.3,31.2c6.2,0,11.5,4,13.5,9.5c-2.3,1.5-5,2.5-8,2.5c-4.6,0-8.7-2.2-11.3-5.5c-0.4-0.8-0.9-1.5-1.4-2.2
	c-0.3-0.6-0.6-1.2-0.8-1.8c0.9-0.6,1.9-1.1,3-1.5c0.3-0.1,0.5-0.2,0.8-0.3C39.4,31.4,40.8,31.2,42.3,31.2z M32,55.5
	c-2.5-2.6-4.1-6.1-4.1-10c0-2.2,0.5-4.3,1.4-6.2c0.8-1,1.5-2.1,2.1-3.2c0.2-0.3,0.5-0.6,0.8-0.8c0.4,0.4,0.7,0.8,1,1.2
	c0.4,0.8,0.9,1.5,1.4,2.2c1,2,1.6,4.2,1.6,6.6C36.4,49.3,34.7,52.9,32,55.5z M27.7,38.2c-2.6,3-6.5,4.9-10.8,4.9c-3.1,0-6-1-8.4-2.7
	c2-5.5,7.3-9.4,13.4-9.4c1.4,0,2.8,0.2,4.2,0.6c0.5,0.2,1,0.4,1.5,0.5c1,0.4,1.9,0.9,2.7,1.6c-0.2,0.5-0.3,0.9-0.6,1.3
	C29,36,28.3,37.1,27.7,38.2z M18.4,14.6c7.2,0.7,12.9,6.8,12.9,14.2c0,0.7-0.1,1.3-0.2,2c-1-0.1-1.9-0.3-2.8-0.6
	c-0.5-0.2-1-0.4-1.5-0.5c-5.1-2.2-8.7-7.3-8.7-13.1C18.2,15.9,18.3,15.2,18.4,14.6z M32.5,2.2c6.5,0,12,4.4,13.8,10.4
	c-6.5,0.6-11.8,4.9-13.9,10.8c-2-5.8-7.3-10.2-13.6-10.9C20.5,6.6,26,2.2,32.5,2.2z M2.7,28.8c0-7.7,6.1-13.9,13.7-14.3
	c-0.1,0.7-0.1,1.3-0.1,2c0,5,2.2,9.4,5.8,12.4C15.2,29,9.4,33.2,7,39C4.3,36.4,2.7,32.8,2.7,28.8z M7.7,45.3c0-1,0.1-1.9,0.3-2.8
	c2.6,1.7,5.6,2.7,8.9,2.7c3.5,0,6.7-1.1,9.4-3c-0.2,1.1-0.4,2.2-0.4,3.4c0,4.4,1.7,8.3,4.5,11.3c-2.4,1.7-5.3,2.8-8.5,2.8
	C14.2,59.6,7.7,53.2,7.7,45.3z M56.6,45.5c0,7.9-6.4,14.3-14.3,14.3c-3.3,0-6.3-1.1-8.7-3c3-3,4.8-7,4.8-11.6c0-1.1-0.1-2.3-0.3-3.3
	c2.7,2,6.1,3.2,9.7,3.2c3.1,0,6.1-0.9,8.6-2.5C56.5,43.6,56.6,44.6,56.6,45.5z M42.7,29.2c3.7-3,6.1-7.6,6.1-12.7
	c0-0.7,0-1.3-0.1-1.9C56.1,15.1,62,21.3,62,28.9c0,4.2-1.8,7.9-4.7,10.5C55,33.6,49.4,29.4,42.7,29.2z"/>
</svg>
