<?xml version="1.0" encoding="utf-8"?>
<!-- Generator: Adobe Illustrator 21.1.0, SVG Export Plug-In . SVG Version: 6.00 Build 0)  -->
<svg version="1.1" id="Layer_1" xmlns="http://www.w3.org/2000/svg" xmlns:xlink="http://www.w3.org/1999/xlink" x="0px" y="0px"
	 viewBox="0 0 400 70" style="enable-background:new 0 0 400 70;" xml:space="preserve">
<style type="text/css">
	.st0{fill:#727273;}
</style>
<title>CHARLAS</title>
<desc>Created with Sketch.</desc>
<g id="Desktop-HD" transform="translate(-421.000000, -1397.000000)">
	<g id="Page-1" transform="translate(152.000000, 1243.000000)">
		<path id="CHARLAS" class="st0" d="M323.7,188.7c0-2.7,0.5-5.5,1.4-8.2c1-2.7,2.4-5.1,4.2-7.3c1.8-2.1,4.1-3.9,6.8-5.2
			c2.7-1.3,5.7-2,9.2-2c4.1,0,7.5,0.9,10.4,2.8s5,4.2,6.4,7.2l-3.5,2.2c-0.7-1.5-1.6-2.8-2.7-3.8c-1-1-2.2-1.9-3.4-2.5
			c-1.2-0.6-2.4-1.1-3.7-1.4c-1.3-0.3-2.5-0.4-3.8-0.4c-2.7,0-5.1,0.6-7.2,1.7s-3.9,2.6-5.3,4.4c-1.4,1.8-2.5,3.8-3.2,6
			c-0.7,2.2-1.1,4.5-1.1,6.8c0,2.5,0.4,4.9,1.3,7.2c0.9,2.3,2.1,4.3,3.6,6.1s3.3,3.2,5.4,4.2c2.1,1,4.3,1.6,6.8,1.6
			c1.3,0,2.6-0.2,3.9-0.5c1.3-0.3,2.6-0.8,3.9-1.5c1.3-0.7,2.4-1.6,3.5-2.6c1.1-1,2-2.3,2.7-3.8l3.7,1.9c-0.7,1.7-1.7,3.2-3.1,4.5
			c-1.3,1.3-2.8,2.4-4.4,3.3c-1.6,0.9-3.3,1.6-5.2,2c-1.8,0.5-3.6,0.7-5.3,0.7c-3.1,0-6-0.7-8.6-2c-2.6-1.4-4.8-3.1-6.7-5.3
			c-1.9-2.2-3.3-4.7-4.4-7.5C324.2,194.4,323.7,191.6,323.7,188.7z M406.4,166.3v45.4H402v-21.2h-26.9v21.2h-4.5v-45.4h4.5v20.2H402
			v-20.2H406.4z M431.9,166.3h3.8l18.9,45.4h-4.7l-5.9-14.2h-20.4l-5.8,14.2h-4.8L431.9,166.3z M442.9,194l-9.2-22.5l-9.3,22.5
			H442.9z M461.1,211.7v-45.4h19.2c2,0,3.8,0.4,5.4,1.2c1.6,0.8,3.1,1.9,4.3,3.3c1.2,1.3,2.1,2.9,2.8,4.6c0.7,1.7,1,3.4,1,5.2
			c0,1.7-0.2,3.3-0.7,4.8c-0.5,1.5-1.2,2.9-2,4.1s-1.9,2.2-3.2,3.1c-1.2,0.8-2.6,1.4-4.2,1.7l11.1,17.5h-5.1L479,194.9h-13.4v16.8
			H461.1z M465.6,191h14.8c1.3,0,2.5-0.3,3.6-0.9c1.1-0.6,2-1.4,2.8-2.3s1.4-2.1,1.8-3.3c0.4-1.2,0.6-2.5,0.6-3.9s-0.2-2.7-0.7-3.9
			c-0.5-1.3-1.2-2.4-2-3.3c-0.8-0.9-1.8-1.7-2.9-2.2s-2.3-0.8-3.6-0.8h-14.5V191z M502.9,211.7v-45.4h4.5v41.5h26.2v4H502.9z
			 M554.3,166.3h3.8l18.9,45.4h-4.7l-5.9-14.2h-20.4l-5.8,14.2h-4.8L554.3,166.3z M565.3,194l-9.2-22.5l-9.3,22.5H565.3z M610,174.8
			c-1.3-1.5-3-2.6-5.1-3.5c-2.1-0.9-4.6-1.3-7.3-1.3c-4,0-6.9,0.8-8.8,2.3c-1.8,1.5-2.8,3.6-2.8,6.2c0,1.4,0.2,2.5,0.7,3.4
			c0.5,0.9,1.2,1.6,2.3,2.3c1,0.6,2.3,1.2,3.9,1.7c1.6,0.5,3.5,0.9,5.7,1.4c2.4,0.5,4.6,1.1,6.6,1.7s3.6,1.4,5,2.4
			c1.4,1,2.4,2.1,3.1,3.5s1.1,3.1,1.1,5.1c0,2.1-0.4,3.9-1.2,5.4s-1.9,2.8-3.4,3.8c-1.5,1-3.2,1.8-5.2,2.3c-2,0.5-4.2,0.7-6.6,0.7
			c-7,0-13.1-2.2-18.2-6.6l2.2-3.6c0.8,0.9,1.8,1.7,2.9,2.4s2.4,1.4,3.8,2c1.4,0.6,2.9,1,4.4,1.3c1.6,0.3,3.2,0.5,5,0.5
			c3.6,0,6.5-0.7,8.5-2c2-1.3,3-3.3,3-5.9c0-1.4-0.3-2.6-0.9-3.6c-0.6-1-1.4-1.8-2.6-2.5c-1.2-0.7-2.6-1.3-4.3-1.8
			c-1.7-0.5-3.7-1-6-1.5c-2.4-0.6-4.5-1.1-6.3-1.7c-1.8-0.6-3.3-1.3-4.5-2.2c-1.2-0.9-2.2-2-2.8-3.2c-0.6-1.3-0.9-2.8-0.9-4.6
			c0-2.1,0.4-4,1.2-5.6c0.8-1.6,1.9-3,3.4-4.1c1.5-1.1,3.2-1.9,5.1-2.5c2-0.6,4.1-0.9,6.5-0.9c3,0,5.7,0.5,8.1,1.4
			c2.4,0.9,4.5,2.2,6.4,3.9L610,174.8z"/>
	</g>
</g>
</svg>
