<?xml version="1.0" encoding="utf-8"?>
<!-- Generator: Adobe Illustrator 21.1.0, SVG Export Plug-In . SVG Version: 6.00 Build 0)  -->
<svg version="1.1" id="Layer_1" xmlns="http://www.w3.org/2000/svg" xmlns:xlink="http://www.w3.org/1999/xlink" x="0px" y="0px"
	 viewBox="0 0 400 70" style="enable-background:new 0 0 400 70;" xml:space="preserve">
<style type="text/css">
	.st0{fill:#727273;}
	.st1{fill:#429CD6;}
	.st2{fill:#9B5EA5;}
	.st3{fill:#519587;}
</style>
<title>Page 1</title>
<desc>Created with Sketch.</desc>
<g id="Desktop-HD" transform="translate(-525.000000, -1249.000000)">
	<g id="Page-1" transform="translate(152.000000, 1243.000000)">
		<g transform="translate(373.940000, 6.050154)">
			<path id="Fill-1" class="st0" d="M13.5,36.7c0-2.7,0.5-5.3,1.4-8c0.9-2.6,2.3-5,4.1-7.1c1.8-2.1,4-3.8,6.6-5.1
				c2.6-1.3,5.6-2,8.9-2c4,0,7.3,0.9,10.1,2.7c2.8,1.8,4.9,4.1,6.2,7l-3.5,2.1c-0.7-1.5-1.6-2.7-2.6-3.7c-1-1-2.1-1.8-3.2-2.4
				c-1.2-0.6-2.4-1.1-3.6-1.3c-1.2-0.3-2.5-0.4-3.7-0.4c-2.7,0-5,0.5-7.1,1.6c-2,1.1-3.8,2.5-5.2,4.2c-1.4,1.7-2.4,3.7-3.2,5.9
				c-0.7,2.2-1.1,4.4-1.1,6.7c0,2.5,0.4,4.8,1.3,7.1c0.9,2.2,2,4.2,3.5,6c1.5,1.7,3.2,3.1,5.2,4.1c2,1,4.2,1.5,6.6,1.5
				c1.2,0,2.5-0.2,3.8-0.5c1.3-0.3,2.6-0.8,3.8-1.5c1.2-0.7,2.4-1.5,3.4-2.6c1-1,1.9-2.3,2.6-3.7l3.6,1.9c-0.7,1.7-1.7,3.1-3,4.4
				c-1.3,1.3-2.7,2.3-4.3,3.2c-1.6,0.9-3.3,1.5-5,2c-1.8,0.5-3.5,0.7-5.2,0.7c-3,0-5.8-0.7-8.4-2c-2.5-1.3-4.7-3.1-6.6-5.2
				C17.5,50.2,16,47.7,15,45C14,42.3,13.5,39.5,13.5,36.7"/>
			<polygon id="Fill-3" class="st0" points="59.4,59.1 59.4,14.8 63.7,14.8 63.7,55.3 89.4,55.3 89.4,59.1 			"/>
			<path id="Fill-5" class="st0" d="M111.5,55.5c2.8,0,5.1-0.5,7-1.6c1.9-1.1,3.3-2.5,4.4-4.2c1.1-1.7,1.9-3.7,2.3-5.9
				c0.4-2.2,0.7-4.4,0.7-6.7V14.8h4.4v22.4c0,3-0.3,5.8-1,8.5c-0.7,2.7-1.7,5-3.2,7.1c-1.5,2-3.4,3.7-5.8,4.9
				c-2.4,1.2-5.3,1.8-8.7,1.8c-3.5,0-6.5-0.6-8.9-1.9c-2.4-1.3-4.3-2.9-5.7-5c-1.5-2.1-2.5-4.5-3.1-7.1c-0.6-2.7-0.9-5.4-0.9-8.2
				V14.8h4.3v22.4c0,2.3,0.2,4.6,0.7,6.8c0.5,2.2,1.2,4.2,2.3,5.9c1.1,1.7,2.6,3.1,4.4,4.1C106.4,55,108.7,55.5,111.5,55.5"/>
			<path id="Fill-7" class="st0" d="M169.6,47c0-1.1-0.2-2.1-0.6-3.2c-0.4-1-0.9-1.9-1.6-2.7c-0.7-0.8-1.5-1.4-2.4-1.9
				c-0.9-0.5-1.9-0.7-3-0.7h-17v16.8h16.5c1.1,0,2.2-0.2,3.2-0.7c1-0.5,1.9-1.1,2.6-1.8c0.7-0.8,1.3-1.7,1.7-2.7
				C169.4,49.1,169.6,48,169.6,47z M145,18.6V35h15.2c1.1,0,2.1-0.2,3-0.7c0.9-0.5,1.7-1.1,2.4-1.8c0.7-0.8,1.2-1.6,1.6-2.6
				c0.4-1,0.6-2,0.6-3.1c0-1.1-0.2-2.2-0.5-3.2c-0.4-1-0.9-1.9-1.5-2.6c-0.6-0.7-1.4-1.3-2.3-1.7c-0.9-0.4-1.9-0.7-2.9-0.7H145z
				 M174,47.7c0,1.7-0.3,3.2-1,4.6c-0.7,1.4-1.6,2.6-2.7,3.6c-1.1,1-2.4,1.8-3.9,2.4c-1.5,0.6-3.1,0.8-4.8,0.8h-20.9V14.8H162
				c1.5,0,2.9,0.3,4.2,1c1.2,0.7,2.3,1.5,3.2,2.6c0.9,1.1,1.6,2.3,2,3.6c0.5,1.4,0.7,2.7,0.7,4.1c0,2.2-0.6,4.3-1.7,6.2
				c-1.1,1.9-2.7,3.2-4.7,4.2c2.5,0.7,4.5,2.1,6,4.2C173.2,42.6,174,45,174,47.7z"/>
			<polygon id="Fill-9" class="st0" points="212.2,55.3 212.2,59.1 182.4,59.1 182.4,14.8 211.6,14.8 211.6,18.7 186.7,18.7 
				186.7,34.7 208.5,34.7 208.5,38.3 186.7,38.3 186.7,55.3 			"/>
			<path id="Fill-11" class="st0" d="M246,23.1c-1.2-1.4-2.9-2.6-5-3.4c-2.1-0.9-4.5-1.3-7.1-1.3c-4,0-6.8,0.7-8.6,2.2
				c-1.8,1.5-2.7,3.5-2.7,6c0,1.3,0.2,2.4,0.7,3.3c0.5,0.9,1.2,1.6,2.2,2.2c1,0.6,2.3,1.2,3.9,1.6c1.6,0.5,3.4,0.9,5.5,1.4
				c2.4,0.5,4.5,1.1,6.4,1.7c1.9,0.6,3.5,1.4,4.8,2.3c1.3,0.9,2.4,2.1,3.1,3.4c0.7,1.4,1.1,3,1.1,5c0,2-0.4,3.8-1.2,5.3
				c-0.8,1.5-1.9,2.7-3.3,3.7s-3.1,1.7-5.1,2.2c-2,0.5-4.1,0.7-6.4,0.7c-7,0-12.9-2.1-17.8-6.4l2.1-3.6c1.6,1.7,3.8,3.2,6.6,4.3
				c2.7,1.2,5.8,1.8,9.2,1.8c3.5,0,6.3-0.6,8.3-1.9c2-1.3,3-3.2,3-5.8c0-1.4-0.3-2.5-0.8-3.5c-0.6-0.9-1.4-1.7-2.5-2.4
				c-1.1-0.7-2.5-1.3-4.2-1.8c-1.7-0.5-3.6-1-5.8-1.5c-2.3-0.5-4.4-1.1-6.1-1.7c-1.7-0.6-3.2-1.3-4.4-2.2c-1.2-0.9-2.1-1.9-2.7-3.2
				c-0.6-1.2-0.9-2.7-0.9-4.5c0-2,0.4-3.9,1.2-5.5c0.8-1.6,1.9-2.9,3.2-4c1.4-1.1,3.1-1.9,5-2.4c1.9-0.6,4.1-0.8,6.4-0.8
				c2.9,0,5.5,0.4,7.8,1.3c2.3,0.9,4.4,2.2,6.3,3.8L246,23.1z"/>
			<path id="Fill-13" class="st1" d="M292.6,18.8c0-6.2,5.1-11.3,11.3-11.3c6.2,0,11.3,5.1,11.3,11.3s-5.1,11.3-11.3,11.3
				C297.7,30.1,292.6,25.1,292.6,18.8"/>
			<path id="Fill-26" class="st2" d="M362.1,50.2c0-6.2,5.1-11.3,11.3-11.3c6.2,0,11.3,5.1,11.3,11.3s-5.1,11.3-11.3,11.3
				C367.2,61.5,362.1,56.5,362.1,50.2"/>
			<path id="Fill-16" class="st3" d="M327.4,18.8c0-6.2,5.1-11.3,11.3-11.3c6.2,0,11.3,5.1,11.3,11.3s-5.1,11.3-11.3,11.3
				C332.4,30.1,327.4,25.1,327.4,18.8"/>
			<path id="Fill-19" class="st1" d="M292.6,50.2c0-6.2,5.1-11.3,11.3-11.3c6.2,0,11.3,5.1,11.3,11.3s-5.1,11.3-11.3,11.3
				C297.7,61.5,292.6,56.5,292.6,50.2"/>
			<path id="Fill-21" class="st3" d="M327.4,50.2c0-6.2,5.1-11.3,11.3-11.3c6.2,0,11.3,5.1,11.3,11.3s-5.1,11.3-11.3,11.3
				C332.4,61.5,327.4,56.5,327.4,50.2"/>
			<path id="Fill-23" class="st2" d="M362.1,18.8c0-6.2,5.1-11.3,11.3-11.3c6.2,0,11.3,5.1,11.3,11.3s-5.1,11.3-11.3,11.3
				C367.2,30.1,362.1,25.1,362.1,18.8"/>
		</g>
	</g>
</g>
</svg>
