<?xml version="1.0" encoding="UTF-8"?>
<svg width="63px" height="63px" viewBox="0 0 63 63" version="1.1" xmlns="http://www.w3.org/2000/svg" xmlns:xlink="http://www.w3.org/1999/xlink">
    <defs></defs>
<g>
			<path fill="#9B5EA5" stroke="#9B5EA5" stroke-width="0.1575" d="M26.7,29.3h5.3c0.5,0,0.8-0.4,0.8-0.8c0-0.5-0.4-0.8-0.8-0.8h-5.3c-0.5,0-0.8,0.4-0.8,0.8
				C25.7,28.8,26.2,29.3,26.7,29.3z"/>
			<path fill="#9B5EA5" stroke="#9B5EA5" stroke-width="0.1575" d="M53,11.7H26.7c-0.5,0-0.8,0.4-0.8,0.8c0,0.5,0.4,0.8,0.8,0.8h25.5v39.5c0,1.4-1.3,2.7-2.6,2.7
				h-37c-1.4,0-2.6-1.3-2.6-2.7V12.6c0.6,0.4,1.2,0.6,1.8,0.8V53c0,0.5,0.4,0.8,0.8,0.8c0.5,0,0.8-0.4,0.8-0.8V12.5
				c0-0.5-0.4-0.8-0.8-0.8s-2.7-0.2-2.7-2.6V8.2c0-1,0.8-1.8,1.8-1.8H53c0.5,0,0.8-0.4,0.8-0.8c0-0.4-0.4-0.9-0.8-0.9H11.7
				c-1.9,0-3.5,1.6-3.5,3.5V53c0,2.3,2,4.4,4.4,4.4h36.9c2.3,0,4.4-2,4.4-4.4V12.5C53.9,12,53.5,11.7,53,11.7z"/>
			<path fill="#9B5EA5" stroke="#9B5EA5" stroke-width="0.1575" d="M52.1,9c0-0.5-0.4-0.8-0.8-0.8H23.1c-0.5,0-0.8,0.4-0.8,0.8v8.5l-2-2c-0.3-0.3-0.9-0.3-1.3,0
				l-2,2V9c0-0.5-0.4-0.8-0.8-0.8h-3.6c-0.5,0-0.8,0.4-0.8,0.8c0,0.5,0.4,0.8,0.8,0.8h2.7v9.7c0,0.3,0.3,0.7,0.5,0.8
				c0.3,0.2,0.7,0.1,0.9-0.2l2.9-2.9l2.9,2.9c0.2,0.2,0.4,0.3,0.6,0.3c0.1,0,0.3,0,0.3-0.1c0.3-0.2,0.5-0.4,0.5-0.8V9.9h27.2
				C51.8,9.9,52.1,9.5,52.1,9z"/>
			<path fill="#9B5EA5" stroke="#9B5EA5" stroke-width="0.1575" d="M20.5,23.1v14.1c0,0.5,0.4,0.8,0.8,0.8h19.3c0.5,0,0.8-0.4,0.8-0.8V23.1
				c0-0.5-0.4-0.8-0.8-0.8H21.4C20.9,22.2,20.5,22.6,20.5,23.1z M22.2,24h17.6v12.3H22.2V24z"/>
			<path fill="#9B5EA5" stroke="#9B5EA5" stroke-width="0.1575" d="M35.4,31h-8.8c-0.5,0-0.8,0.4-0.8,0.8c0,0.5,0.4,0.8,0.8,0.8h8.8c0.5,0,0.8-0.4,0.8-0.8
				C36.3,31.4,35.9,31,35.4,31z"/>
</g>
</svg>
