<?xml version="1.0" encoding="UTF-8"?>
<svg width="63px" height="63px" viewBox="0 0 63 63" version="1.1" xmlns="http://www.w3.org/2000/svg" xmlns:xlink="http://www.w3.org/1999/xlink">
    <defs></defs>
<g id="Desktop-HD" transform="translate(-649.000000, -1644.000000)">
	<g id="Group-4-Copy-4" transform="translate(604.000000, 1599.000000)">
		<g id="educacion" transform="translate(45.754116, 45.825133)">
			<path id="Shape" fill="#9B5EA5" stroke="#9B5EA5" stroke-width="0.1882" d="M25.8,28.9h6.3c0.6,0,1-0.5,1-1c0-0.6-0.5-1-1-1h-6.3c-0.6,0-1,0.5-1,1
				C24.7,28.4,25.2,28.9,25.8,28.9z"/>
			<path id="Shape_1_" fill="#9B5EA5" stroke="#9B5EA5" stroke-width="0.1882" d="M57.3,7.9H25.8c-0.6,0-1,0.5-1,1c0,0.6,0.5,1,1,1h30.5v47.2c0,1.7-1.5,3.2-3.1,3.2H9
				c-1.7,0-3.1-1.5-3.1-3.2V9c0.7,0.5,1.4,0.7,2.1,0.9v47.4c0,0.6,0.5,1,1,1c0.6,0,1-0.5,1-1V8.9c0-0.6-0.5-1-1-1
				c-0.5,0-3.2-0.2-3.2-3.1v-1c0-1.2,0.9-2.1,2.1-2.1h49.4c0.6,0,1-0.5,1-1s-0.5-1.1-1-1.1H7.9c-2.3,0-4.2,1.9-4.2,4.2v53.5
				c0,2.8,2.4,5.3,5.3,5.3h44.1c2.8,0,5.3-2.4,5.3-5.3V8.9C58.3,8.3,57.9,7.9,57.3,7.9z"/>
			<path id="Shape_2_" fill="#9B5EA5" stroke="#9B5EA5" stroke-width="0.1882" d="M56.2,4.7c0-0.6-0.5-1-1-1H21.6c-0.6,0-1,0.5-1,1v10.1l-2.4-2.4c-0.4-0.4-1.1-0.4-1.5,0
				l-2.4,2.4V4.7c0-0.6-0.5-1-1-1H9c-0.6,0-1,0.5-1,1c0,0.6,0.5,1,1,1h3.2v11.6c0,0.4,0.3,0.8,0.6,1c0.4,0.2,0.8,0.1,1.1-0.2
				l3.5-3.5l3.5,3.5c0.2,0.2,0.5,0.3,0.7,0.3c0.1,0,0.3,0,0.4-0.1c0.4-0.2,0.6-0.5,0.6-1V5.8h32.5C55.8,5.8,56.2,5.3,56.2,4.7z"/>
			<path id="Shape_3_" fill="#9B5EA5" stroke="#9B5EA5" stroke-width="0.1882" d="M18.4,21.5v16.8c0,0.6,0.5,1,1,1h23.1c0.6,0,1-0.5,1-1V21.5c0-0.6-0.5-1-1-1H19.5
				C18.9,20.5,18.4,20.9,18.4,21.5z M20.5,22.6h21v14.7h-21V22.6z"/>
			<path id="Shape_4_" fill="#9B5EA5" stroke="#9B5EA5" stroke-width="0.1882" d="M36.3,31H25.8c-0.6,0-1,0.5-1,1c0,0.6,0.5,1,1,1h10.5c0.6,0,1-0.5,1-1
				C37.3,31.4,36.9,31,36.3,31z"/>
		</g>
	</g>
</g>
</svg>
