<?xml version="1.0" encoding="UTF-8"?>
<svg width="305px" height="70px" viewBox="0 0 305 70" version="1.1" xmlns="http://www.w3.org/2000/svg" xmlns:xlink="http://www.w3.org/1999/xlink">
    <!-- Generator: Sketch 48.2 (47327) - http://www.bohemiancoding.com/sketch -->
    <title>free-m</title>
    <desc>Created with Sketch.</desc>
    <defs></defs>
    <g id="Desktop-HD" stroke="none" stroke-width="1" fill="none" fill-rule="evenodd" transform="translate(-1049.000000, -2494.000000)">
        <g id="free-m" transform="translate(1049.500000, 2494.645247)">
            <polygon id="Fill-1" fill="#F8E71C" points="0 0.0001 29 32.5571 0 69.0841 304.312 69.0841 277.103 32.5551 303.915 0.0001"></polygon>
            <polygon id="Fill-47" fill="#509587" points="300.196 4.6535 4.258 4.6535 3.293 3.6535 301.019 3.6535"></polygon>
            <polygon id="Fill-48" fill="#509587" points="301.9155 65.9689 2.3965 65.9689 3.1905 64.9689 301.1705 64.9689"></polygon>
            <g id="Group-9" transform="translate(66.156000, 17.733516)" fill="#509587" fill-rule="nonzero">
                <polygon id="Shape" points="1 0.554752709 11 0.554752709 11 2.95475271 3.8 2.95475271 3.8 6.85475271 10.4 6.85475271 10.4 9.25475271 3.8 9.25475271 3.8 14.9547527 1 14.9547527"></polygon>
                <path d="M22.1,15.0547527 L19.6,10.7547527 C19.5,10.7547527 19.3,10.7547527 19.1,10.7547527 L15.8,10.7547527 L15.8,15.0547527 L13,15.0547527 L13,0.554752709 L19,0.554752709 C20.9,0.554752709 22.3,0.954752709 23.3,1.85475271 C24.3,2.75475271 24.8,3.95475271 24.8,5.55475271 C24.8,6.65475271 24.6,7.65475271 24.1,8.45475271 C23.6,9.25475271 22.9,9.85475271 22,10.2547527 L25.2,15.0547527 L22.1,15.0547527 Z M15.8,8.25475271 L19.1,8.25475271 C20.1,8.25475271 20.9,8.05475271 21.5,7.55475271 C22.1,7.05475271 22.3,6.45475271 22.3,5.55475271 C22.3,4.65475271 22,4.05475271 21.5,3.55475271 C20.9,3.15475271 20.1,2.85475271 19.1,2.85475271 L15.8,2.85475271 L15.8,8.25475271 Z" id="Shape"></path>
                <polygon id="Shape" points="28 0.554752709 38.6 0.554752709 38.6 2.95475271 30.8 2.95475271 30.8 6.55475271 37.8 6.55475271 37.8 8.95475271 30.8 8.95475271 30.8 12.5547527 38.9 12.5547527 38.9 14.9547527 28 14.9547527 28 0.554752709"></polygon>
                <polygon id="Shape" points="41.7 0.554752709 52.3 0.554752709 52.3 2.95475271 44.5 2.95475271 44.5 6.55475271 51.5 6.55475271 51.5 8.95475271 44.5 8.95475271 44.5 12.5547527 52.6 12.5547527 52.6 14.9547527 41.7 14.9547527 41.7 0.554752709"></polygon>
                <path d="M71.1,15.0547527 L69.8,11.9547527 L62.7,11.9547527 L61.4,15.0547527 L58.5,15.0547527 L64.9,0.554752709 L67.8,0.554752709 L74.1,15.0547527 L71.1,15.0547527 Z M63.8,9.55475271 L68.9,9.55475271 L66.4,3.45475271 L63.8,9.55475271 Z" id="Shape"></path>
                <polygon id="Shape" points="86 0.554752709 88.7 0.554752709 88.7 15.0547527 86.1 15.0547527 78.7 5.05475271 78.7 15.0547527 76 15.0547527 76 0.554752709 78.6 0.554752709 86.1 10.5547527 86.1 0.554752709"></polygon>
                <path d="M102.1,1.45475271 C103.2,2.05475271 104.1,2.95475271 104.8,4.05475271 C105.5,5.15475271 105.8,6.45475271 105.8,7.75475271 C105.8,9.15475271 105.5,10.3547527 104.8,11.4547527 C104.1,12.5547527 103.2,13.4547527 102.1,14.0547527 C100.9,14.6547527 99.6,14.9547527 98.1,14.9547527 L92.2,14.9547527 L92.2,0.554752709 L98.2,0.554752709 C99.7,0.554752709 101,0.854752709 102.1,1.45475271 Z M100.7,11.9547527 C101.4,11.5547527 102,10.9547527 102.4,10.2547527 C102.8,9.55475271 103,8.75475271 103,7.75475271 C103,6.85475271 102.8,5.95475271 102.4,5.25475271 C102,4.55475271 101.4,3.95475271 100.7,3.55475271 C100,3.15475271 99.2,2.95475271 98.3,2.95475271 L95.1,2.95475271 L95.1,12.5547527 L98.4,12.5547527 C99.2,12.5547527 100,12.3547527 100.7,11.9547527 Z" id="Shape"></path>
                <path d="M123.8,1.35475271 C125,1.95475271 125.9,2.85475271 126.6,4.05475271 C127.3,5.15475271 127.6,6.45475271 127.6,7.85475271 C127.6,9.25475271 127.3,10.4547527 126.6,11.6547527 C125.9,12.7547527 125,13.6547527 123.8,14.3547527 C122.6,15.0547527 121.3,15.3547527 119.9,15.3547527 C118.5,15.3547527 117.2,15.0547527 116,14.3547527 C114.8,13.6547527 113.9,12.7547527 113.2,11.6547527 C112.5,10.5547527 112.2,9.25475271 112.2,7.85475271 C112.2,6.45475271 112.5,5.25475271 113.2,4.05475271 C113.9,2.95475271 114.8,2.05475271 116,1.35475271 C117.2,0.754752709 118.5,0.354752709 119.9,0.354752709 C121.3,0.354752709 122.6,0.654752709 123.8,1.35475271 Z M117.4,3.45475271 C116.6,3.85475271 116,4.45475271 115.6,5.25475271 C115.2,6.05475271 114.9,6.85475271 114.9,7.75475271 C114.9,8.65475271 115.1,9.45475271 115.6,10.2547527 C116,11.0547527 116.6,11.6547527 117.4,12.0547527 C118.2,12.4547527 119,12.7547527 119.9,12.7547527 C120.8,12.7547527 121.6,12.5547527 122.3,12.0547527 C123,11.5547527 123.6,11.0547527 124.1,10.2547527 C124.5,9.45475271 124.8,8.65475271 124.8,7.75475271 C124.8,6.85475271 124.6,6.05475271 124.1,5.25475271 C123.7,4.45475271 123.1,3.95475271 122.3,3.45475271 C121.5,2.95475271 120.7,2.75475271 119.9,2.75475271 C119,2.85475271 118.2,3.05475271 117.4,3.45475271 Z" id="Shape"></path>
                <path d="M140.2,1.85475271 C141.2,2.75475271 141.7,3.95475271 141.7,5.55475271 C141.7,7.25475271 141.2,8.45475271 140.2,9.45475271 C139.2,10.3547527 137.8,10.8547527 136,10.8547527 L132.8,10.8547527 L132.8,15.1547527 L130,15.1547527 L130,0.554752709 L135.9,0.554752709 C137.8,0.554752709 139.2,0.954752709 140.2,1.85475271 Z M138.2,7.65475271 C138.8,7.15475271 139,6.55475271 139,5.65475271 C139,4.75475271 138.7,4.15475271 138.2,3.65475271 C137.6,3.25475271 136.8,2.95475271 135.8,2.95475271 L132.8,2.95475271 L132.8,8.35475271 L135.8,8.35475271 C136.8,8.25475271 137.6,8.05475271 138.2,7.65475271 Z" id="Shape"></path>
                <polygon id="Shape" points="144 0.554752709 154.6 0.554752709 154.6 2.95475271 146.8 2.95475271 146.8 6.55475271 153.8 6.55475271 153.8 8.95475271 146.8 8.95475271 146.8 12.5547527 154.9 12.5547527 154.9 14.9547527 144 14.9547527 144 0.554752709"></polygon>
                <polygon id="Shape" points="167.7 0.554752709 170.4 0.554752709 170.4 15.0547527 167.8 15.0547527 160.4 5.05475271 160.4 15.0547527 157.7 15.0547527 157.7 0.554752709 160.3 0.554752709 167.8 10.5547527 167.8 0.554752709"></polygon>
                <polygon id="Shape" points="0.5 20.0547527 10.3 20.0547527 10.3 21.6547527 6.2 21.6547527 6.2 32.6547527 4.5 32.6547527 4.5 21.6547527 0.5 21.6547527"></polygon>
                <path d="M20.4,20.7547527 C21.4,21.3547527 22.2,22.0547527 22.8,23.0547527 C23.4,24.0547527 23.7,25.1547527 23.7,26.2547527 C23.7,27.4547527 23.4,28.5547527 22.8,29.4547527 C22.2,30.3547527 21.4,31.2547527 20.4,31.7547527 C19.4,32.3547527 18.3,32.6547527 17.1,32.6547527 C15.9,32.6547527 14.8,32.3547527 13.8,31.7547527 C12.8,31.1547527 12,30.4547527 11.4,29.4547527 C10.8,28.4547527 10.5,27.3547527 10.5,26.2547527 C10.5,25.0547527 10.8,23.9547527 11.4,23.0547527 C12,22.1547527 12.8,21.3547527 13.8,20.7547527 C14.8,20.1547527 15.9,19.9547527 17.1,19.9547527 C18.3,19.8547527 19.4,20.1547527 20.4,20.7547527 Z M14.6,22.0547527 C13.8,22.4547527 13.3,23.0547527 12.8,23.8547527 C12.4,24.5547527 12.1,25.4547527 12.1,26.2547527 C12.1,27.1547527 12.3,27.9547527 12.8,28.6547527 C13.2,29.3547527 13.8,29.9547527 14.6,30.4547527 C15.3,30.8547527 16.2,31.1547527 17,31.1547527 C17.9,31.1547527 18.7,30.9547527 19.4,30.4547527 C20.1,30.0547527 20.7,29.4547527 21.2,28.6547527 C21.6,27.9547527 21.9,27.0547527 21.9,26.2547527 C21.9,25.3547527 21.7,24.5547527 21.2,23.8547527 C20.8,23.1547527 20.2,22.5547527 19.4,22.0547527 C18.7,21.6547527 17.9,21.4547527 17,21.4547527 C16.2,21.4547527 15.4,21.6547527 14.6,22.0547527 Z" id="Shape"></path>
                <polygon id="Shape" points="29.3 20.0547527 39.1 20.0547527 39.1 21.6547527 35 21.6547527 35 32.6547527 33.3 32.6547527 33.3 21.6547527 29.3 21.6547527"></polygon>
                <polygon id="Shape" points="41.1 20.0547527 49.8 20.0547527 49.8 21.6547527 42.8 21.6547527 42.8 25.5547527 49.1 25.5547527 49.1 27.1547527 42.8 27.1547527 42.8 31.1547527 50 31.1547527 50 32.7547527 41 32.7547527 41 20.0547527"></polygon>
                <polygon id="Shape" points="52.8 20.0547527 61.5 20.0547527 61.5 21.6547527 54.5 21.6547527 54.5 25.5547527 60.8 25.5547527 60.8 27.1547527 54.5 27.1547527 54.5 31.1547527 61.7 31.1547527 61.7 32.7547527 52.7 32.7547527 52.7 20.0547527"></polygon>
                <polygon id="Shape" points="73.6 20.0547527 75.3 20.0547527 75.3 32.6547527 73.5 32.6547527 66.3 22.8547527 66.3 32.6547527 64.6 32.6547527 64.6 20.0547527 66.3 20.0547527 73.5 29.8547527 73.5 20.0547527"></polygon>
                <path d="M88.2,32.6547527 L86.9,29.5547527 L80.3,29.5547527 L79,32.6547527 L77.2,32.6547527 L82.8,20.0547527 L84.6,20.0547527 L90.2,32.6547527 L88.2,32.6547527 Z M80.9,27.9547527 L86.2,27.9547527 L83.5,21.8547527 L80.9,27.9547527 Z" id="Shape"></path>
                <path d="M100.4,26.4547527 L101.9,26.4547527 L101.9,31.0547527 C101.3,31.5547527 100.5,31.9547527 99.7,32.2547527 C98.8,32.5547527 98,32.7547527 97.2,32.7547527 C96,32.7547527 94.9,32.4547527 93.9,31.8547527 C92.9,31.2547527 92.1,30.5547527 91.5,29.5547527 C90.9,28.5547527 90.6,27.4547527 90.6,26.3547527 C90.6,25.1547527 90.9,24.0547527 91.5,23.1547527 C92.1,22.1547527 92.9,21.4547527 93.9,20.8547527 C94.9,20.2547527 96,20.0547527 97.3,20.0547527 C98.2,20.0547527 99,20.2547527 99.9,20.5547527 C100.7,20.8547527 101.5,21.2547527 102.1,21.8547527 L101.1,23.1547527 C100.6,22.6547527 100,22.3547527 99.4,22.0547527 C98.7,21.7547527 98.1,21.6547527 97.4,21.6547527 C96.5,21.6547527 95.7,21.8547527 94.9,22.2547527 C94.1,22.6547527 93.5,23.2547527 93.1,24.0547527 C92.7,24.7547527 92.4,25.6547527 92.4,26.4547527 C92.4,27.3547527 92.6,28.1547527 93.1,28.9547527 C93.5,29.7547527 94.1,30.2547527 94.9,30.7547527 C95.7,31.1547527 96.5,31.4547527 97.4,31.4547527 C97.9,31.4547527 98.5,31.3547527 99,31.1547527 C99.5,30.9547527 100.1,30.7547527 100.5,30.4547527 L100.5,26.4547527 L100.4,26.4547527 Z" id="Shape"></path>
                <polygon id="Shape" points="105.2 20.0547527 113.9 20.0547527 113.9 21.6547527 106.9 21.6547527 106.9 25.5547527 113.2 25.5547527 113.2 27.1547527 106.9 27.1547527 106.9 31.1547527 114.1 31.1547527 114.1 32.7547527 105.1 32.7547527 105.1 20.0547527"></polygon>
                <path d="M130.3,26.4547527 L131.8,26.4547527 L131.8,31.0547527 C131.2,31.5547527 130.4,31.9547527 129.6,32.2547527 C128.7,32.5547527 127.9,32.7547527 127.1,32.7547527 C125.9,32.7547527 124.8,32.4547527 123.8,31.8547527 C122.8,31.2547527 122,30.5547527 121.4,29.5547527 C120.8,28.5547527 120.5,27.4547527 120.5,26.3547527 C120.5,25.1547527 120.8,24.0547527 121.4,23.1547527 C122,22.1547527 122.8,21.4547527 123.8,20.8547527 C124.8,20.2547527 125.9,20.0547527 127.2,20.0547527 C128.1,20.0547527 128.9,20.2547527 129.8,20.5547527 C130.6,20.8547527 131.4,21.2547527 132,21.8547527 L131,23.1547527 C130.5,22.6547527 129.9,22.3547527 129.3,22.0547527 C128.6,21.7547527 128,21.6547527 127.3,21.6547527 C126.4,21.6547527 125.6,21.8547527 124.8,22.2547527 C124,22.6547527 123.4,23.2547527 123,24.0547527 C122.6,24.7547527 122.3,25.6547527 122.3,26.4547527 C122.3,27.3547527 122.5,28.1547527 123,28.9547527 C123.4,29.7547527 124,30.2547527 124.8,30.7547527 C125.6,31.1547527 126.4,31.4547527 127.3,31.4547527 C127.8,31.4547527 128.4,31.3547527 128.9,31.1547527 C129.4,30.9547527 130,30.7547527 130.4,30.4547527 L130.4,26.4547527 L130.3,26.4547527 Z" id="Shape"></path>
                <polygon id="Shape" points="135.1 20.0547527 136.8 20.0547527 136.8 32.6547527 135.1 32.6547527"></polygon>
                <path d="M148.6,32.6547527 L146.1,28.6547527 C145.8,28.6547527 145.6,28.6547527 145.4,28.6547527 L142.2,28.6547527 L142.2,32.5547527 L140.5,32.5547527 L140.5,20.0547527 L145.4,20.0547527 C147,20.0547527 148.2,20.4547527 149.1,21.1547527 C150,21.8547527 150.4,22.9547527 150.4,24.2547527 C150.4,25.2547527 150.2,26.1547527 149.7,26.8547527 C149.2,27.5547527 148.5,28.0547527 147.7,28.3547527 L150.6,32.6547527 L148.6,32.6547527 Z M145.4,27.1547527 C146.5,27.1547527 147.3,26.9547527 147.9,26.4547527 C148.5,25.9547527 148.8,25.2547527 148.8,24.3547527 C148.8,23.4547527 148.5,22.7547527 147.9,22.3547527 C147.3,21.9547527 146.5,21.6547527 145.4,21.6547527 L142.2,21.6547527 L142.2,27.1547527 L145.4,27.1547527 Z" id="Shape"></path>
                <polygon id="Shape" points="153.5 20.0547527 155.2 20.0547527 155.2 31.0547527 160.7 31.0547527 160.7 32.6547527 153.5 32.6547527"></polygon>
                <path d="M168.5,21.7547527 C167.9,21.5547527 167.3,21.4547527 166.8,21.4547527 C166.1,21.4547527 165.5,21.5547527 165,21.8547527 C164.6,22.1547527 164.3,22.5547527 164.3,23.0547527 C164.3,23.4547527 164.4,23.8547527 164.7,24.1547527 C165,24.4547527 165.3,24.6547527 165.7,24.8547527 C166.1,25.0547527 166.6,25.2547527 167.3,25.4547527 C168.2,25.7547527 168.8,25.9547527 169.4,26.2547527 C169.9,26.4547527 170.4,26.8547527 170.8,27.3547527 C171.2,27.8547527 171.4,28.4547527 171.4,29.2547527 C171.4,29.9547527 171.2,30.6547527 170.8,31.1547527 C170.4,31.6547527 169.9,32.1547527 169.2,32.4547527 C168.5,32.7547527 167.7,32.8547527 166.8,32.8547527 C165.9,32.8547527 165,32.6547527 164.1,32.3547527 C163.2,31.9547527 162.5,31.5547527 161.8,30.9547527 L162.6,29.4547527 C163.2,30.0547527 163.9,30.4547527 164.6,30.8547527 C165.4,31.1547527 166.1,31.3547527 166.8,31.3547527 C167.6,31.3547527 168.3,31.1547527 168.8,30.8547527 C169.3,30.5547527 169.5,30.0547527 169.5,29.5547527 C169.5,29.1547527 169.4,28.7547527 169.1,28.4547527 C168.8,28.1547527 168.5,27.9547527 168.1,27.7547527 C167.7,27.5547527 167.2,27.3547527 166.5,27.1547527 C165.7,26.8547527 165,26.6547527 164.4,26.4547527 C163.9,26.2547527 163.4,25.8547527 163.1,25.3547527 C162.7,24.8547527 162.6,24.2547527 162.6,23.4547527 C162.6,22.7547527 162.8,22.1547527 163.2,21.6547527 C163.6,21.1547527 164.1,20.7547527 164.8,20.4547527 C165.5,20.1547527 166.3,20.0547527 167.1,20.0547527 C167.9,20.0547527 168.6,20.1547527 169.3,20.3547527 C170,20.5547527 170.7,20.8547527 171.2,21.2547527 L170.5,22.7547527 C169.7,22.2547527 169.1,21.9547527 168.5,21.7547527 Z" id="Shape"></path>
            </g>
        </g>
    </g>
</svg>