<?xml version="1.0" encoding="utf-8"?>
<!-- Generator: Adobe Illustrator 21.1.0, SVG Export Plug-In . SVG Version: 6.00 Build 0)  -->
<svg version="1.1" id="Layer_1" xmlns="http://www.w3.org/2000/svg" xmlns:xlink="http://www.w3.org/1999/xlink" x="0px" y="0px"
	 viewBox="0 0 283 88" style="enable-background:new 0 0 283 88;" xml:space="preserve">
<style type="text/css">
	.st0{fill:#F8E71C;}
	.st1{fill:#509587;}
</style>
<title>libre-gratuito</title>
<desc>Created with Sketch.</desc>
<g id="Desktop-HD" transform="translate(-1053.000000, -2302.000000)">
	<g id="libre-gratuito" transform="translate(1053.500000, 2302.593072)">
		<polygon id="Fill-1" class="st0" points="32,0 61,32.6 32,69.1 282.3,69.1 282.3,0 		"/>
		<g id="Group-50" transform="translate(2.000000, 2.755000)">
			<polygon id="Fill-47" class="st1" points="280.3,66.3 251.9,84 251.9,66.3 			"/>
			<polygon id="Fill-48" class="st1" points="280.3,1.9 34.1,1.9 33.2,0.9 280.3,0.9 			"/>
			<polygon id="Fill-49" class="st1" points="280.3,63.2 32.5,63.2 33.3,62.2 280.3,62.2 			"/>
		</g>
	</g>
</g>
<g>
	<path class="st1" d="M82.5,18.7h10l0,2.4h-7.2V25h6.6v2.4h-6.6v5.7h-2.8V18.7z"/>
	<path class="st1" d="M103.6,33.2l-2.5-4.3c-0.1,0-0.3,0-0.5,0h-3.3v4.3h-2.8V18.7h6c1.9,0,3.3,0.4,4.3,1.3c1,0.9,1.5,2.1,1.5,3.7
		c0,1.1-0.2,2.1-0.7,2.9c-0.5,0.8-1.2,1.4-2.1,1.8l3.2,4.8H103.6z M97.3,26.4h3.3c1,0,1.8-0.2,2.4-0.7c0.6-0.5,0.8-1.1,0.8-2
		c0-0.9-0.3-1.5-0.8-2c-0.6-0.4-1.4-0.7-2.4-0.7h-3.3V26.4z"/>
	<path class="st1" d="M109.5,18.7h10.6v2.4h-7.8v3.6h7v2.4h-7v3.6h8.1v2.4h-10.9V18.7z"/>
	<path class="st1" d="M123.2,18.7h10.6v2.4h-7.8v3.6h7v2.4h-7v3.6h8.1v2.4h-10.9V18.7z"/>
	<path class="st1" d="M152.6,33.2l-1.3-3.1h-7.1l-1.3,3.1h-2.9l6.4-14.5h2.9l6.3,14.5H152.6z M145.3,27.7h5.1l-2.5-6.1L145.3,27.7z"
		/>
	<path class="st1" d="M167.5,18.7h2.7v14.5h-2.6l-7.4-10v10h-2.7V18.7h2.6l7.5,10V18.7z"/>
	<path class="st1" d="M183.6,19.6c1.1,0.6,2,1.5,2.7,2.6s1,2.4,1,3.7c0,1.4-0.3,2.6-1,3.7s-1.6,2-2.7,2.6c-1.2,0.6-2.5,0.9-4,0.9
		h-5.9V18.7h6C181.2,18.7,182.5,19,183.6,19.6z M182.2,30.1c0.7-0.4,1.3-1,1.7-1.7c0.4-0.7,0.6-1.5,0.6-2.5c0-0.9-0.2-1.8-0.6-2.5
		c-0.4-0.7-1-1.3-1.7-1.7c-0.7-0.4-1.5-0.6-2.4-0.6h-3.2v9.6h3.3C180.7,30.7,181.5,30.5,182.2,30.1z"/>
	<path class="st1" d="M205.3,19.5c1.2,0.6,2.1,1.5,2.8,2.7c0.7,1.1,1,2.4,1,3.8s-0.3,2.6-1,3.8c-0.7,1.1-1.6,2-2.8,2.7
		c-1.2,0.7-2.5,1-3.9,1s-2.7-0.3-3.9-1c-1.2-0.7-2.1-1.6-2.8-2.7c-0.7-1.1-1-2.4-1-3.8s0.3-2.6,1-3.8c0.7-1.1,1.6-2,2.8-2.7
		c1.2-0.6,2.5-1,3.9-1S204.1,18.8,205.3,19.5z M198.9,21.6c-0.8,0.4-1.4,1-1.8,1.8c-0.4,0.8-0.7,1.6-0.7,2.5c0,0.9,0.2,1.7,0.7,2.5
		c0.4,0.8,1,1.4,1.8,1.8c0.8,0.4,1.6,0.7,2.5,0.7c0.9,0,1.7-0.2,2.4-0.7s1.3-1,1.8-1.8c0.4-0.8,0.7-1.6,0.7-2.5
		c0-0.9-0.2-1.7-0.7-2.5c-0.4-0.8-1-1.3-1.8-1.8s-1.6-0.7-2.4-0.7C200.5,21,199.7,21.2,198.9,21.6z"/>
	<path class="st1" d="M221.7,20c1,0.9,1.5,2.1,1.5,3.7c0,1.7-0.5,2.9-1.5,3.9c-1,0.9-2.4,1.4-4.2,1.4h-3.2v4.3h-2.8V18.7h5.9
		C219.3,18.7,220.7,19.1,221.7,20z M219.7,25.8c0.6-0.5,0.8-1.1,0.8-2c0-0.9-0.3-1.5-0.8-2c-0.6-0.4-1.4-0.7-2.4-0.7h-3v5.4h3
		C218.3,26.4,219.1,26.2,219.7,25.8z"/>
	<path class="st1" d="M225.5,18.7h10.6v2.4h-7.8v3.6h7v2.4h-7v3.6h8.1v2.4h-10.9V18.7z"/>
	<path class="st1" d="M249.2,18.7h2.7v14.5h-2.6l-7.4-10v10h-2.7V18.7h2.6l7.5,10V18.7z"/>
	<path class="st1" d="M82,38.2h9.8v1.6h-4.1v11h-1.7v-11h-4V38.2z"/>
	<path class="st1" d="M101.9,38.9c1,0.6,1.8,1.3,2.4,2.3s0.9,2.1,0.9,3.2c0,1.2-0.3,2.3-0.9,3.2s-1.4,1.8-2.4,2.3
		c-1,0.6-2.1,0.9-3.3,0.9c-1.2,0-2.3-0.3-3.3-0.9c-1-0.6-1.8-1.3-2.4-2.3s-0.9-2.1-0.9-3.2c0-1.2,0.3-2.3,0.9-3.2s1.4-1.7,2.4-2.3
		s2.1-0.8,3.3-0.8C99.8,38,100.9,38.3,101.9,38.9z M96.1,40.2c-0.8,0.4-1.3,1-1.8,1.8c-0.4,0.7-0.7,1.6-0.7,2.4
		c0,0.9,0.2,1.7,0.7,2.4c0.4,0.7,1,1.3,1.8,1.8c0.7,0.4,1.6,0.7,2.4,0.7c0.9,0,1.7-0.2,2.4-0.7c0.7-0.4,1.3-1,1.8-1.8
		c0.4-0.7,0.7-1.6,0.7-2.4c0-0.9-0.2-1.7-0.7-2.4c-0.4-0.7-1-1.3-1.8-1.8c-0.7-0.4-1.5-0.6-2.4-0.6C97.7,39.6,96.9,39.8,96.1,40.2z"
		/>
	<path class="st1" d="M110.8,38.2h9.8v1.6h-4.1v11h-1.7v-11h-4V38.2z"/>
	<path class="st1" d="M122.6,38.2h8.7v1.6h-7v3.9h6.3v1.6h-6.3v4h7.2v1.6h-9V38.2z"/>
	<path class="st1" d="M134.3,38.2h8.7v1.6h-7v3.9h6.3v1.6h-6.3v4h7.2v1.6h-9V38.2z"/>
	<path class="st1" d="M155.1,38.2h1.7v12.6H155l-7.2-9.8v9.8h-1.7V38.2h1.7l7.2,9.8V38.2z"/>
	<path class="st1" d="M169.7,50.8l-1.3-3.1h-6.6l-1.3,3.1h-1.8l5.6-12.6h1.8l5.6,12.6H169.7z M162.4,46.1h5.3l-2.7-6.1L162.4,46.1z"
		/>
	<path class="st1" d="M181.9,44.6h1.5v4.6c-0.6,0.5-1.4,0.9-2.2,1.2c-0.9,0.3-1.7,0.5-2.5,0.5c-1.2,0-2.3-0.3-3.3-0.9
		c-1-0.6-1.8-1.3-2.4-2.3s-0.9-2.1-0.9-3.2c0-1.2,0.3-2.3,0.9-3.2c0.6-1,1.4-1.7,2.4-2.3c1-0.6,2.1-0.8,3.4-0.8
		c0.9,0,1.7,0.2,2.6,0.5c0.8,0.3,1.6,0.7,2.2,1.3l-1,1.3c-0.5-0.5-1.1-0.8-1.7-1.1c-0.7-0.3-1.3-0.4-2-0.4c-0.9,0-1.7,0.2-2.5,0.6
		c-0.8,0.4-1.4,1-1.8,1.8c-0.4,0.7-0.7,1.6-0.7,2.4c0,0.9,0.2,1.7,0.7,2.5c0.4,0.8,1,1.3,1.8,1.8c0.8,0.4,1.6,0.7,2.5,0.7
		c0.5,0,1.1-0.1,1.6-0.3c0.5-0.2,1.1-0.4,1.5-0.7V44.6z"/>
	<path class="st1" d="M186.7,38.2h8.7v1.6h-7v3.9h6.3v1.6h-6.3v4h7.2v1.6h-9V38.2z"/>
	<path class="st1" d="M211.8,44.6h1.5v4.6c-0.6,0.5-1.4,0.9-2.2,1.2c-0.9,0.3-1.7,0.5-2.5,0.5c-1.2,0-2.3-0.3-3.3-0.9
		c-1-0.6-1.8-1.3-2.4-2.3s-0.9-2.1-0.9-3.2c0-1.2,0.3-2.3,0.9-3.2c0.6-1,1.4-1.7,2.4-2.3c1-0.6,2.1-0.8,3.4-0.8
		c0.9,0,1.7,0.2,2.6,0.5c0.8,0.3,1.6,0.7,2.2,1.3l-1,1.3c-0.5-0.5-1.1-0.8-1.7-1.1c-0.7-0.3-1.3-0.4-2-0.4c-0.9,0-1.7,0.2-2.5,0.6
		c-0.8,0.4-1.4,1-1.8,1.8c-0.4,0.7-0.7,1.6-0.7,2.4c0,0.9,0.2,1.7,0.7,2.5c0.4,0.8,1,1.3,1.8,1.8c0.8,0.4,1.6,0.7,2.5,0.7
		c0.5,0,1.1-0.1,1.6-0.3c0.5-0.2,1.1-0.4,1.5-0.7V44.6z"/>
	<path class="st1" d="M216.6,38.2h1.7v12.6h-1.7V38.2z"/>
	<path class="st1" d="M230.1,50.8l-2.5-4c-0.3,0-0.5,0-0.7,0h-3.2v3.9H222V38.2h4.9c1.6,0,2.8,0.4,3.7,1.1c0.9,0.7,1.3,1.8,1.3,3.1
		c0,1-0.2,1.9-0.7,2.6c-0.5,0.7-1.2,1.2-2,1.5l2.9,4.3H230.1z M226.9,45.3c1.1,0,1.9-0.2,2.5-0.7c0.6-0.5,0.9-1.2,0.9-2.1
		c0-0.9-0.3-1.6-0.9-2s-1.4-0.7-2.5-0.7h-3.2v5.5H226.9z"/>
	<path class="st1" d="M235,38.2h1.7v11h5.5v1.6H235V38.2z"/>
	<path class="st1" d="M250,39.9c-0.6-0.2-1.2-0.3-1.7-0.3c-0.7,0-1.3,0.1-1.8,0.4c-0.4,0.3-0.7,0.7-0.7,1.2c0,0.4,0.1,0.8,0.4,1.1
		c0.3,0.3,0.6,0.5,1,0.7s0.9,0.4,1.6,0.6c0.9,0.3,1.5,0.5,2.1,0.8c0.5,0.2,1,0.6,1.4,1.1c0.4,0.5,0.6,1.1,0.6,1.9
		c0,0.7-0.2,1.4-0.6,1.9s-0.9,1-1.6,1.3s-1.5,0.4-2.4,0.4c-0.9,0-1.8-0.2-2.7-0.5c-0.9-0.4-1.6-0.8-2.3-1.4l0.8-1.5
		c0.6,0.6,1.3,1,2,1.4c0.8,0.3,1.5,0.5,2.2,0.5c0.8,0,1.5-0.2,2-0.5s0.7-0.8,0.7-1.3c0-0.4-0.1-0.8-0.4-1.1c-0.3-0.3-0.6-0.5-1-0.7
		c-0.4-0.2-0.9-0.4-1.6-0.6c-0.8-0.3-1.5-0.5-2.1-0.7c-0.5-0.2-1-0.6-1.3-1.1c-0.4-0.5-0.5-1.1-0.5-1.9c0-0.7,0.2-1.3,0.6-1.8
		c0.4-0.5,0.9-0.9,1.6-1.2c0.7-0.3,1.5-0.4,2.3-0.4c0.8,0,1.5,0.1,2.2,0.3c0.7,0.2,1.4,0.5,1.9,0.9l-0.7,1.5
		C251.2,40.4,250.6,40.1,250,39.9z"/>
</g>
</svg>
