<?xml version="1.0" encoding="UTF-8"?>
<svg width="85px" height="85px" viewBox="0 0 85 85" version="1.1" xmlns="http://www.w3.org/2000/svg" xmlns:xlink="http://www.w3.org/1999/xlink">
    <defs></defs>
<g id="Desktop-HD" transform="translate(-610.000000, -1348.000000)">
	<g id="idea" transform="translate(611.000000, 1348.661376)">
		<path fill="#509587" stroke="#FFFFFF" stroke-width="0.5" d="M72.5,70.8c-0.8-2.5-2.3-4.7-4.2-6.5V25.5c0-14.5-11.8-26.4-26.4-26.4S15.6,10.9,15.6,25.5v38.8
			c-1.9,1.8-3.3,4-4.2,6.5l-4.7,14h70.5L72.5,70.8z M18.9,25.5c0-12.7,10.4-23.1,23.1-23.1S65,12.8,65,25.5v3.3
			c-1-0.7-2.1-1.3-3.3-1.5v-3.5h-3.9c-5.6,0-10.8-2.2-14.8-6.1l-1.2-1.2l-1.2,1.2c-3.9,3.9-9.2,6.1-14.8,6.1h-3.9v3.5
			c-1.2,0.3-2.3,0.8-3.3,1.5V25.5z M25.5,40.3V27.1H26c5.9,0,11.5-2.1,15.9-6c4.4,3.9,10,6,15.9,6h0.6v13.2
			c0,9.1-7.4,16.5-16.5,16.5S25.5,49.4,25.5,40.3z M38.4,66.2l-0.9,0.9c-1.6,1.6-4.5,1.6-6.1,0l-0.4-0.4c-0.6-0.6-0.9-1.2-1.1-2
			l-0.6-2.3l3.4-0.5C33.6,63.3,35.3,65.3,38.4,66.2z M51.1,61.9l3.4,0.5l-0.6,2.3c-0.2,0.8-0.6,1.5-1.1,2l-0.4,0.4
			c-1.6,1.6-4.5,1.6-6.1,0l-0.9-0.9C48.6,65.3,50.3,63.3,51.1,61.9z M51.8,58.7v-1.2c5-2.9,8.7-8,9.6-13.9c1.3-0.2,2.5-0.8,3.6-1.6
			v19.9c-1.9-1.1-4-1.8-6.3-2.2L51.8,58.7z M61.7,40v-9.3c1.9,0.7,3.3,2.5,3.3,4.6S63.6,39.3,61.7,40z M22.2,30.7V40
			c-1.9-0.7-3.3-2.5-3.3-4.6S20.2,31.4,22.2,30.7z M18.9,41.9c1,0.8,2.2,1.3,3.6,1.6c1,6,4.6,11,9.6,13.9v1.2l-6.8,1
			c-2.3,0.3-4.4,1.1-6.3,2.2V41.9z M40.3,81.5h-29l3.2-9.7c1.6-4.7,5.9-8.2,11.2-8.9l0.4-0.1l0.7,2.6c0.3,1.3,1,2.6,2,3.5l0.4,0.4
			c1.4,1.4,3.4,2.2,5.4,2.2s4-0.8,5.4-2.2l0.4-0.4V81.5z M35.4,59.8V59c2.1,0.7,4.3,1.2,6.6,1.2s4.5-0.4,6.6-1.2v0.8
			c-0.4,0.8-2,3.6-6.6,3.6C37.3,63.4,35.7,60.6,35.4,59.8z M43.6,69l0.4,0.4c1.4,1.4,3.4,2.2,5.4,2.2c2,0,4-0.8,5.4-2.2l0.4-0.4
			c1-1,1.7-2.2,2-3.5l0.7-2.6l0.4,0.1c5.2,0.7,9.6,4.3,11.2,8.9l3.2,9.7h-29V69z"/>
		<rect id="Rectangle-path" x="50.2" y="32.1" fill="#509587"  stroke="#FFFFFF" stroke-width="0.5" width="3.3" height="3.3"/>
		<rect id="Rectangle-path_1_" x="32.1" y="32.1" fill="#509587"  stroke="#FFFFFF" stroke-width="0.5" width="3.3" height="3.3"/>
		<path id="Shape_1_" fill="#509587"  stroke="#FFFFFF" stroke-width="0.5" d="M50.2,43.6h-3.3c0,2.7-2.2,4.9-4.9,4.9c-2.7,0-4.9-2.2-4.9-4.9h-3.3c0,4.5,3.7,8.2,8.2,8.2
			S50.2,48.2,50.2,43.6z"/>
		<rect id="Rectangle-path_2_" x="46.9" y="75" fill="#509587"  stroke="#FFFFFF" stroke-width="0.5" width="3.3" height="3.3"/>
		<rect id="Rectangle-path_3_" x="33.7" y="75" fill="#509587"  stroke="#FFFFFF" stroke-width="0.5" width="3.3" height="3.3"/>
	</g>
</g>
</svg>
