<?xml version="1.0" encoding="utf-8"?>
<!-- Generator: Adobe Illustrator 21.1.0, SVG Export Plug-In . SVG Version: 6.00 Build 0)  -->
<svg version="1.1" id="Layer_1" xmlns="http://www.w3.org/2000/svg" xmlns:xlink="http://www.w3.org/1999/xlink" x="0px" y="0px"
	 viewBox="0 0 400 70" style="enable-background:new 0 0 400 70;" xml:space="preserve">
<style type="text/css">
	.st0{fill:#727273;}
</style>
<title>I + D + I</title>
<desc>Created with Sketch.</desc>
<g id="Desktop-HD" transform="translate(-1014.000000, -1253.000000)">
	<g id="Page-1" transform="translate(152.000000, 1243.000000)">
		<path id="I-_x2B_-D-_x2B_-I" class="st0" d="M970,67.6V22.1h4.5v45.4H970z M1019.7,43v3.6h-7.9v8.6h-4v-8.6h-7.9V43h7.9v-8.6h4V43
			H1019.7z M1045.1,67.6V22.1h15.4c3.6,0,6.8,0.6,9.5,1.8c2.7,1.2,5,2.8,6.8,4.9c1.8,2,3.2,4.4,4.1,7.2c0.9,2.8,1.4,5.7,1.4,8.8
			c0,3.5-0.5,6.6-1.5,9.4s-2.5,5.2-4.4,7.2s-4.2,3.5-6.8,4.6c-2.7,1.1-5.7,1.6-9,1.6H1045.1z M1077.8,44.8c0-2.7-0.4-5.2-1.2-7.5
			c-0.8-2.3-1.9-4.3-3.4-5.9c-1.5-1.7-3.3-3-5.4-3.9c-2.1-0.9-4.6-1.4-7.4-1.4h-10.9v37.5h10.9c2.8,0,5.3-0.5,7.5-1.4
			c2.2-1,4-2.3,5.4-4c1.5-1.7,2.5-3.7,3.3-6C1077.4,49.9,1077.8,47.5,1077.8,44.8z M1124.7,43v3.6h-7.9v8.6h-4v-8.6h-7.9V43h7.9
			v-8.6h4V43H1124.7z M1150,67.6V22.1h4.5v45.4H1150z"/>
	</g>
</g>
</svg>
