<?xml version="1.0" encoding="UTF-8"?>
<svg width="63px" height="63px" viewBox="0 0 63 63" version="1.1" xmlns="http://www.w3.org/2000/svg" xmlns:xlink="http://www.w3.org/1999/xlink">
    <defs></defs>
<path fill="#9B5EA5" d="M23.8,38.4c-0.5-0.4-1.2-0.4-1.7,0.1c-2,2.3-5,3.6-8.1,3.6c-6,0-10.9-4.9-10.9-10.9S8,20.2,14,20.2
	c3.1,0,6.1,1.4,8.1,3.6c0.4,0.5,1.2,0.5,1.7,0.1c0.5-0.4,0.5-1.2,0.1-1.7c-2.5-2.8-6.1-4.4-9.9-4.4c-7.3,0-13.2,5.9-13.2,13.2
	c0,6.6,4.9,12.3,11.5,13.1l0.6,0.1v7.2H8.4c-0.7,0-1.2,0.5-1.2,1.2s0.5,1.2,1.2,1.2h4.5v4.3c0,0.7,0.5,1.2,1.2,1.2s1.2-0.5,1.2-1.2
	v-4.3h4.6c0.7,0,1.2-0.5,1.2-1.2s-0.5-1.2-1.2-1.2h-4.6v-7.2l0.6-0.1c3.1-0.4,6-1.9,8.1-4.3C24.3,39.6,24.3,38.8,23.8,38.4z"/>
<path fill="#9B5EA5" d="M62.2,31.2c0-6.6-5-12.3-11.5-13.1L50.1,18V7.4l3.8,3.8c0.4,0.4,1.2,0.4,1.7,0c0.4-0.4,0.4-1.2,0-1.7l-5.1-5.1
	c-0.8-0.8-2.2-0.8-3.1,0l-5.1,5.1c-0.4,0.4-0.4,1.2,0,1.7c0.4,0.4,1.2,0.4,1.7,0l3.8-3.8V18L47.4,18c-3.2,0.4-6.2,2-8.4,4.6
	c-0.4,0.5-0.3,1.3,0.2,1.6c0.3,0.2,0.5,0.3,0.8,0.3c0.3,0,0.6-0.2,0.8-0.4c2.1-2.5,5.1-3.8,8.3-3.8c6,0,10.9,4.9,10.9,10.9
	c0,2.9-1.1,5.7-3.2,7.7s-4.9,3.2-7.8,3.2c-3.2,0-6.2-1.4-8.3-3.8c-0.2-0.3-0.5-0.4-0.8-0.4h-0.1c-0.3,0-0.5,0.1-0.8,0.3
	c-0.3,0.2-0.4,0.5-0.4,0.8c0,0.3,0.1,0.6,0.3,0.8c2.5,3,6.2,4.7,10.1,4.7c3.6,0,6.9-1.4,9.4-3.9C60.8,38,62.2,34.7,62.2,31.2z"/>
<path fill="#9B5EA5" d="M36.2,26.2h-9.1c-0.7,0-1.2,0.5-1.2,1.2c0,0.7,0.5,1.2,1.2,1.2h9.1c0.7,0,1.2-0.5,1.2-1.2
	C37.4,26.7,36.9,26.2,36.2,26.2z"/>
<path fill="#9B5EA5" d="M36.2,33.3h-9.1c-0.7,0-1.2,0.5-1.2,1.2s0.5,1.2,1.2,1.2h9.1c0.7,0,1.2-0.5,1.2-1.2
	C37.4,33.9,36.9,33.3,36.2,33.3z"/>
</svg>
