<?xml version="1.0" encoding="UTF-8"?>
<svg width="63px" height="63px" viewBox="0 0 63 63" version="1.1" xmlns="http://www.w3.org/2000/svg" xmlns:xlink="http://www.w3.org/1999/xlink">
    <defs></defs>
    <g id="Desktop-HD" stroke="none" stroke-width="1" fill="none" fill-rule="evenodd" transform="translate(-1023.000000, -2093.000000)">
        <g id="Group-4-Copy-4" transform="translate(604.000000, 1605.000000)">
            <g id="industria" transform="translate(420.000000, 489.000000)">
                <g id="Page-1" transform="translate(30.368913, 8.888462)"></g>
                <polygon id="Stroke-2" stroke="#9B5EA5" stroke-width="2" stroke-linejoin="round" points="0.498768612 34.8230088 15.4298994 43.4045428 30.5326409 34.8230088 15.5157048 26.2414748"></polygon>
                <polygon id="Stroke-4" stroke="#9B5EA5" stroke-width="2" stroke-linejoin="round" points="0.498768612 51.9842808 15.4298994 60.5658148 15.4298994 43.4037446 0.498768612 34.8232083"></polygon>
                <polygon id="Stroke-6" stroke="#9B5EA5" stroke-width="2" stroke-linejoin="round" points="30.532142 51.9842808 15.4294005 60.5658148 15.4294005 43.4037446 30.532142 34.8232083"></polygon>
                <polygon id="Stroke-8" stroke="#9B5EA5" stroke-width="2" stroke-linejoin="round" points="30.532142 34.8230088 45.4632728 43.4045428 60.5660143 34.8230088 45.5490782 26.2414748"></polygon>
                <polygon id="Stroke-12" stroke="#9B5EA5" stroke-width="2" stroke-linejoin="round" points="30.532142 51.9842808 45.4632728 60.5658148 45.4632728 43.4037446 30.532142 34.8232083"></polygon>
                <polygon id="Stroke-14" stroke="#9B5EA5" stroke-width="2" stroke-linejoin="round" points="60.5656152 51.9842808 45.4628737 60.5658148 45.4628737 43.4037446 60.5656152 34.8232083"></polygon>
                <polygon id="Stroke-18" stroke="#9B5EA5" stroke-width="2" stroke-linejoin="round" points="15.5154054 9.07960417 30.4465362 17.6611381 45.5492777 9.07960417 30.5323416 0.498070196"></polygon>
                <polygon id="Stroke-20" stroke="#9B5EA5" stroke-width="2" stroke-linejoin="round" points="15.5154054 26.2418739 30.4465362 34.8234079 45.5492777 26.2418739 30.5323416 17.6603399"></polygon>
                <path d="M15.5154054,43.4041437 L30.4465362,51.9846799" id="Stroke-21" stroke="#9B5EA5" stroke-width="2" stroke-linejoin="round"></path>
                <polygon id="Stroke-22" stroke="#9B5EA5" stroke-width="2" stroke-linejoin="round" points="15.5154054 26.2418739 30.4465362 34.8234079 30.4465362 17.6603399 15.5154054 9.07980371"></polygon>
                <polygon id="Stroke-23" stroke="#9B5EA5" stroke-width="2" stroke-linejoin="round" points="45.5488786 26.2418739 30.4461371 34.8234079 30.4461371 17.6603399 45.5488786 9.07980371"></polygon>
            </g>
        </g>
    </g>
</svg>