<?xml version="1.0" encoding="UTF-8"?>
<svg width="283px" height="88px" viewBox="0 0 283 88" version="1.1" xmlns="http://www.w3.org/2000/svg" xmlns:xlink="http://www.w3.org/1999/xlink">
    <!-- Generator: Sketch 48.2 (47327) - http://www.bohemiancoding.com/sketch -->
    <title>libre-gratuito</title>
    <desc>Created with Sketch.</desc>
    <defs></defs>
    <g id="Desktop-HD" stroke="none" stroke-width="1" fill="none" fill-rule="evenodd" transform="translate(-1053.000000, -2302.000000)">
        <g id="libre-gratuito" transform="translate(1053.500000, 2302.593072)">
            <polygon id="Fill-1" fill="#F8E71C" points="0 0.0004 29 32.5574 0 69.0844 282.312 69.0844 282.312 0.0004"></polygon>
            <polygon id="Fill-2" fill="#509587" points="69.25 32.5572 69.25 17.6472 72.148 17.6472 72.148 30.0162 79.75 30.0162 79.75 32.5572"></polygon>
            <polygon id="Fill-3" fill="#509587" points="81.514 32.557 84.412 32.557 84.412 17.647 81.514 17.647"></polygon>
            <g id="Group-50" transform="translate(2.000000, 2.755000)" fill="#509587">
                <path d="M94.6128,25.413 C94.6128,25.147 94.5678,24.892 94.4768,24.647 C94.3848,24.402 94.2628,24.188 94.1088,24.006 C93.9548,23.825 93.7728,23.681 93.5628,23.576 C93.3528,23.471 93.1218,23.418 92.8698,23.418 L88.4178,23.418 L88.4178,27.345 L92.7228,27.345 C92.9888,27.345 93.2378,27.296 93.4678,27.198 C93.6988,27.1 93.8988,26.964 94.0668,26.788 C94.2348,26.614 94.3678,26.407 94.4658,26.169 C94.5638,25.931 94.6128,25.679 94.6128,25.413 Z M88.4178,17.37 L88.4178,21.129 L92.2818,21.129 C92.7718,21.129 93.1878,20.961 93.5308,20.625 C93.8738,20.289 94.0458,19.827 94.0458,19.239 C94.0458,18.665 93.8878,18.21 93.5728,17.874 C93.2588,17.538 92.8698,17.37 92.4078,17.37 L88.4178,17.37 Z M97.5318,25.959 C97.5318,26.589 97.4058,27.142 97.1538,27.618 C96.9018,28.094 96.5548,28.493 96.1138,28.815 C95.6738,29.138 95.1618,29.382 94.5818,29.55 C93.9998,29.718 93.3808,29.802 92.7228,29.802 L85.5198,29.802 L85.5198,14.892 L93.4998,14.892 C94.0178,14.892 94.4868,15.004 94.9068,15.228 C95.3268,15.452 95.6838,15.743 95.9778,16.1 C96.2718,16.456 96.4988,16.863 96.6598,17.318 C96.8208,17.773 96.9018,18.231 96.9018,18.693 C96.9018,19.421 96.7198,20.104 96.3558,20.741 C95.9918,21.378 95.4598,21.85 94.7598,22.158 C95.6138,22.41 96.2888,22.862 96.7858,23.513 C97.2828,24.163 97.5318,24.979 97.5318,25.959 Z" id="Fill-4"></path>
                <path d="M102.6978,22.2631 L106.3308,22.2631 C106.5958,22.2631 106.8448,22.2001 107.0758,22.0741 C107.3068,21.9481 107.5068,21.7771 107.6748,21.5591 C107.8428,21.3431 107.9758,21.0871 108.0738,20.7931 C108.1718,20.4991 108.2208,20.1841 108.2208,19.8481 C108.2208,19.4981 108.1648,19.1761 108.0528,18.8821 C107.9408,18.5881 107.7898,18.3331 107.6008,18.1161 C107.4118,17.8991 107.1948,17.7311 106.9498,17.6121 C106.7048,17.4931 106.4568,17.4331 106.2048,17.4331 L102.6978,17.4331 L102.6978,22.2631 Z M99.7998,29.8021 L99.7998,14.8921 L106.3938,14.8921 C107.0798,14.8921 107.7128,15.0361 108.2938,15.3231 C108.8748,15.6101 109.3758,15.9881 109.7958,16.4561 C110.2158,16.9261 110.5448,17.4581 110.7828,18.0531 C111.0208,18.6481 111.1398,19.2461 111.1398,19.8481 C111.1398,20.8141 110.8978,21.6931 110.4148,22.4841 C109.9318,23.2751 109.2778,23.8461 108.4518,24.1951 L111.8538,29.8021 L108.5988,29.8021 L105.5538,24.8041 L102.6978,24.8041 L102.6978,29.8021 L99.7998,29.8021 Z" id="Fill-6"></path>
                <polygon id="Fill-8" points="124.1177 27.2612 124.1177 29.8022 113.7647 29.8022 113.7647 14.8922 123.9287 14.8922 123.9287 17.4332 116.6627 17.4332 116.6627 21.0242 122.9417 21.0242 122.9417 23.3762 116.6627 23.3762 116.6627 27.2612"></polygon>
                <polygon id="Fill-10" points="132.3911 14.892 136.0671 22.074 139.8041 14.892 142.9331 14.892 137.5151 24.594 137.5151 29.802 134.6381 29.802 134.6381 24.552 129.2421 14.892"></polygon>
                <path d="M159.2505,28.122 C158.0605,29.312 156.6745,29.907 155.0925,29.907 C154.1115,29.907 153.1915,29.711 152.3305,29.319 C151.4695,28.927 150.7205,28.388 150.0835,27.702 C149.4465,27.017 148.9415,26.208 148.5715,25.277 C148.2005,24.346 148.0155,23.341 148.0155,22.263 C148.0155,21.242 148.2005,20.279 148.5715,19.376 C148.9415,18.473 149.4535,17.682 150.1045,17.003 C150.7555,16.324 151.5215,15.785 152.4035,15.386 C153.2855,14.987 154.2445,14.787 155.2805,14.787 C156.6815,14.787 157.8815,15.081 158.8825,15.669 C159.8835,16.257 160.6365,17.048 161.1405,18.042 L158.9775,19.638 C158.5995,18.896 158.0705,18.33 157.3915,17.937 C156.7125,17.545 155.9745,17.349 155.1765,17.349 C154.5465,17.349 153.9685,17.482 153.4435,17.748 C152.9185,18.014 152.4705,18.378 152.0995,18.84 C151.7285,19.302 151.4405,19.834 151.2385,20.436 C151.0355,21.039 150.9345,21.675 150.9345,22.347 C150.9345,23.047 151.0465,23.702 151.2705,24.31 C151.4935,24.92 151.8025,25.448 152.1935,25.896 C152.5855,26.344 153.0515,26.698 153.5905,26.956 C154.1295,27.216 154.7145,27.345 155.3445,27.345 C156.7855,27.345 158.0875,26.666 159.2505,25.308 L159.2505,24.258 L156.2465,24.258 L156.2465,22.137 L161.6445,22.137 L161.6445,29.802 L159.2505,29.802 L159.2505,28.122 Z" id="Fill-12"></path>
                <path d="M167.02,22.2631 L170.653,22.2631 C170.918,22.2631 171.167,22.2001 171.399,22.0741 C171.629,21.9481 171.83,21.7771 171.998,21.5591 C172.166,21.3431 172.298,21.0871 172.396,20.7931 C172.494,20.4991 172.543,20.1841 172.543,19.8481 C172.543,19.4981 172.487,19.1761 172.375,18.8821 C172.263,18.5881 172.113,18.3331 171.923,18.1161 C171.735,17.8991 171.517,17.7311 171.273,17.6121 C171.028,17.4931 170.779,17.4331 170.527,17.4331 L167.02,17.4331 L167.02,22.2631 Z M164.123,29.8021 L164.123,14.8921 L170.716,14.8921 C171.402,14.8921 172.036,15.0361 172.617,15.3231 C173.198,15.6101 173.698,15.9881 174.118,16.4561 C174.539,16.9261 174.867,17.4581 175.105,18.0531 C175.343,18.6481 175.462,19.2461 175.462,19.8481 C175.462,20.8141 175.22,21.6931 174.738,22.4841 C174.254,23.2751 173.6,23.8461 172.774,24.1951 L176.176,29.8021 L172.921,29.8021 L169.876,24.8041 L167.02,24.8041 L167.02,29.8021 L164.123,29.8021 Z" id="Fill-14"></path>
                <path d="M185.437,24.0483 L183.379,18.1893 L181.237,24.0483 L185.437,24.0483 Z M182.098,14.8923 L184.66,14.8923 L190.33,29.8023 L187.348,29.8023 L185.962,26.0853 L180.754,26.0853 L179.389,29.8023 L176.407,29.8023 L182.098,14.8923 Z" id="Fill-16"></path>
                <polygon id="Fill-18" points="201.6489 17.433 196.8819 17.433 196.8819 29.802 194.0049 29.802 194.0049 17.433 189.2379 17.433 189.2379 14.892 201.6489 14.892"></polygon>
                <path d="M209.7974,27.3452 C210.4834,27.3452 211.0604,27.2052 211.5294,26.9252 C211.9984,26.6452 212.3764,26.2812 212.6634,25.8332 C212.9504,25.3852 213.1534,24.8712 213.2734,24.2892 C213.3914,23.7092 213.4504,23.1102 213.4504,22.4942 L213.4504,14.8922 L216.3274,14.8922 L216.3274,22.4942 C216.3274,23.5162 216.2054,24.4752 215.9604,25.3712 C215.7154,26.2672 215.3304,27.0512 214.8054,27.7232 C214.2804,28.3952 213.6054,28.9272 212.7784,29.3192 C211.9524,29.7112 210.9664,29.9072 209.8184,29.9072 C208.6284,29.9072 207.6164,29.7002 206.7834,29.2872 C205.9504,28.8752 205.2754,28.3292 204.7574,27.6502 C204.2384,26.9702 203.8644,26.1832 203.6334,25.2872 C203.4024,24.3912 203.2874,23.4602 203.2874,22.4942 L203.2874,14.8922 L206.1854,14.8922 L206.1854,22.4942 C206.1854,23.1242 206.2444,23.7302 206.3634,24.3102 C206.4824,24.8922 206.6854,25.4062 206.9724,25.8542 C207.2594,26.3022 207.6344,26.6622 208.0964,26.9352 C208.5584,27.2092 209.1254,27.3452 209.7974,27.3452" id="Fill-20"></path>
                <polygon id="Fill-22" points="219.248 29.802 222.145 29.802 222.145 14.892 219.248 14.892"></polygon>
                <polygon id="Fill-24" points="236.4038 17.433 231.6368 17.433 231.6368 29.802 228.7598 29.802 228.7598 17.433 223.9928 17.433 223.9928 14.892 236.4038 14.892"></polygon>
                <path d="M239.5952,22.3471 C239.5952,22.9911 239.6942,23.6141 239.8892,24.2161 C240.0852,24.8181 240.3682,25.3501 240.7402,25.8121 C241.1112,26.2741 241.5662,26.6451 242.1052,26.9251 C242.6442,27.2051 243.2562,27.3451 243.9432,27.3451 C244.6422,27.3451 245.2622,27.2011 245.8012,26.9141 C246.3402,26.6281 246.7952,26.2461 247.1662,25.7701 C247.5362,25.2941 247.8172,24.7591 248.0062,24.1631 C248.1952,23.5691 248.2892,22.9631 248.2892,22.3471 C248.2892,21.7031 248.1882,21.0801 247.9852,20.4781 C247.7822,19.8761 247.4942,19.3441 247.1242,18.8821 C246.7532,18.4201 246.2982,18.0531 245.7592,17.7801 C245.2202,17.5071 244.6152,17.3701 243.9432,17.3701 C243.2422,17.3701 242.6192,17.5141 242.0742,17.8011 C241.5282,18.0881 241.0732,18.4661 240.7082,18.9341 C240.3442,19.4041 240.0682,19.9361 239.8792,20.5311 C239.6902,21.1261 239.5952,21.7311 239.5952,22.3471 M243.9212,29.9071 C242.8292,29.9071 241.8392,29.6941 240.9492,29.2661 C240.0612,28.8401 239.2982,28.2731 238.6612,27.5661 C238.0242,26.8591 237.5312,26.0501 237.1802,25.1401 C236.8302,24.2301 236.6562,23.2991 236.6562,22.3471 C236.6562,21.3531 236.8412,20.4011 237.2122,19.4911 C237.5822,18.5811 238.0942,17.7761 238.7452,17.0761 C239.3962,16.3761 240.1692,15.8201 241.0662,15.4071 C241.9612,14.9941 242.9352,14.7871 243.9852,14.7871 C245.0632,14.7871 246.0462,15.0081 246.9352,15.4491 C247.8242,15.8891 248.5832,16.4671 249.2132,17.1811 C249.8432,17.8951 250.3332,18.7071 250.6842,19.6171 C251.0332,20.5271 251.2082,21.4511 251.2082,22.3891 C251.2082,23.3831 251.0272,24.3311 250.6622,25.2351 C250.2982,26.1381 249.7942,26.9351 249.1512,27.6291 C248.5062,28.3221 247.7372,28.8751 246.8402,29.2871 C245.9452,29.7011 244.9712,29.9071 243.9212,29.9071" id="Fill-25"></path>
                <polygon id="Fill-47" points="280.312 66.329 251.88 84 251.88 66.329"></polygon>
                <polygon id="Fill-48" points="280.312 1.8984 2.145 1.8984 1.18 0.8984 280.312 0.8984"></polygon>
                <polygon id="Fill-49" points="280.312 63.2138 0.473 63.2138 1.267 62.2138 280.312 62.2138"></polygon>
            </g>
            <path d="M38.9775198,50.068887 L38.9775198,40.070809 L43.117569,40.070809 C43.549413,40.070809 43.9460464,40.1623398 44.3074811,40.3454041 C44.6689158,40.5284684 44.9810592,40.7678566 45.2439208,41.0635759 C45.5067824,41.3592952 45.7133134,41.6949081 45.86352,42.0704246 C46.0137266,42.4459411 46.0888288,42.8261459 46.0888288,43.2110504 C46.0888288,43.6241186 46.0184205,44.020752 45.8776018,44.4009625 C45.7367831,44.781173 45.5396399,45.1167859 45.2861662,45.4078112 C45.0326925,45.6988365 44.7299369,45.9335308 44.3778901,46.1119012 C44.0258433,46.2902716 43.6339038,46.3794554 43.2020598,46.3794554 L39.9632458,46.3794554 L39.9632458,50.068887 L38.9775198,50.068887 Z M39.9632458,45.5063838 L43.1598144,45.5063838 C43.4508397,45.5063838 43.7160443,45.4430163 43.9554361,45.3162795 C44.1948279,45.1895427 44.399012,45.0205628 44.5679944,44.8093347 C44.7369769,44.5981066 44.8684057,44.3540246 44.9622848,44.0770811 C45.0561639,43.8001376 45.1031028,43.5114636 45.1031028,43.2110504 C45.1031028,42.9012493 45.0491231,42.6078814 44.9411621,42.3309379 C44.8332011,42.0539944 44.6876906,41.8122593 44.5046263,41.6057252 C44.321562,41.3991911 44.1056432,41.237252 43.8568635,41.1199031 C43.6080838,41.0025542 43.3475731,40.9438806 43.0753236,40.9438806 L39.9632458,40.9438806 L39.9632458,45.5063838 Z M49.5670334,40.070809 L50.3978596,40.070809 L54.5519906,50.068887 L53.5099374,50.068887 L52.2144118,46.9427274 L47.7223176,46.9427274 L46.4408738,50.068887 L45.3847388,50.068887 L49.5670334,40.070809 Z M51.989103,46.1682284 L49.9754056,41.2255166 L47.9335446,46.1682284 L51.989103,46.1682284 Z M55.9883342,50.068887 L55.9883342,40.070809 L60.2128742,40.070809 C60.6447182,40.070809 61.0413516,40.1623398 61.4027863,40.3454041 C61.764221,40.5284684 62.0763644,40.7678566 62.339226,41.0635759 C62.6020876,41.3592952 62.8062716,41.6949081 62.9517843,42.0704246 C63.097297,42.4459411 63.1700522,42.8261459 63.1700522,43.2110504 C63.1700522,43.577179 63.1160725,43.9268736 63.0081115,44.2601445 C62.9001505,44.5934154 62.7499461,44.8938242 62.5574939,45.1613797 C62.3650417,45.4289352 62.1326943,45.6542418 61.8604448,45.8373061 C61.5881953,46.0203704 61.2830927,46.1447584 60.9451278,46.2104738 L63.395361,50.068887 L62.2828988,50.068887 L59.9312382,46.3794554 L56.9740602,46.3794554 L56.9740602,50.068887 L55.9883342,50.068887 Z M56.9740602,45.5063838 L60.2410378,45.5063838 C60.5320631,45.5063838 60.7972677,45.4430163 61.0366595,45.3162795 C61.2760513,45.1895427 61.4802354,45.0182158 61.6492178,44.8022938 C61.8182003,44.5863718 61.9496291,44.3422897 62.0435082,44.0700402 C62.1373873,43.7977907 62.1843262,43.5114636 62.1843262,43.2110504 C62.1843262,42.9106372 62.1303465,42.6219632 62.0223855,42.3450197 C61.9144245,42.0680762 61.768914,41.8263411 61.5858497,41.619807 C61.4027854,41.4132729 61.1868666,41.2489869 60.9380869,41.126944 C60.6893072,41.0049011 60.4287965,40.9438806 60.156547,40.9438806 L56.9740602,40.9438806 L56.9740602,45.5063838 Z M67.971946,40.070809 L68.8027722,40.070809 L72.9569032,50.068887 L71.91485,50.068887 L70.6193244,46.9427274 L66.1272302,46.9427274 L64.8457864,50.068887 L63.7896514,50.068887 L67.971946,40.070809 Z M70.3940156,46.1682284 L68.3803182,41.2255166 L66.3384572,46.1682284 L70.3940156,46.1682284 Z M79.7724944,40.070809 L80.6033206,40.070809 L84.7574516,50.068887 L83.7153984,50.068887 L82.4198728,46.9427274 L77.9277786,46.9427274 L76.6463348,50.068887 L75.5901998,50.068887 L79.7724944,40.070809 Z M82.194564,46.1682284 L80.1808666,41.2255166 L78.1390056,46.1682284 L82.194564,46.1682284 Z M86.1937952,50.068887 L86.1937952,40.070809 L89.587509,40.070809 C90.3854817,40.070809 91.0825238,40.2022378 91.6786563,40.4650994 C92.2747888,40.727961 92.7723408,41.0846963 93.1713271,41.5353162 C93.5703134,41.9859361 93.8707222,42.5139983 94.0725623,43.1195187 C94.2744025,43.7250391 94.375321,44.3704485 94.375321,45.0557662 C94.375321,45.8161872 94.2626677,46.5038416 94.0373578,47.1187499 C93.8120479,47.7336582 93.4905167,48.2593735 93.0727545,48.6959115 C92.6549924,49.1324495 92.1527465,49.4704093 91.5660019,49.7098011 C90.9792573,49.9491929 90.3197663,50.068887 89.587509,50.068887 L86.1937952,50.068887 Z M93.389595,45.0557662 C93.389595,44.4549397 93.3051051,43.9034081 93.1361226,43.4011547 C92.9671402,42.8989013 92.7207111,42.4647168 92.3968281,42.0985882 C92.0729451,41.7324596 91.6763117,41.4484794 91.206916,41.2466393 C90.7375203,41.0447992 90.1977234,40.9438806 89.587509,40.9438806 L87.1795212,40.9438806 L87.1795212,49.1958154 L89.587509,49.1958154 C90.2071113,49.1958154 90.7539491,49.090203 91.2280387,48.8789749 C91.7021283,48.6677468 92.0987617,48.3767259 92.4179508,48.0059033 C92.7371399,47.6350807 92.978875,47.1985493 93.1431635,46.6962959 C93.307452,46.1940425 93.389595,45.6472048 93.389595,45.0557662 Z M100.289677,50.139296 C99.5949714,50.139296 98.9589498,49.9961325 98.3815931,49.7098011 C97.8042364,49.4234697 97.3090314,49.0432649 96.8959632,48.5691753 C96.482895,48.0950857 96.1637107,47.5529418 95.9384008,46.9427274 C95.7130909,46.332513 95.6004376,45.7082261 95.6004376,45.069848 C95.6004376,44.4033061 95.7201317,43.7649376 95.9595235,43.1547232 C96.1989153,42.5445088 96.5298343,42.0047119 96.9522904,41.5353162 C97.3747465,41.0659205 97.8722985,40.6927566 98.4449612,40.4158131 C99.0176239,40.1388696 99.6372169,40.0004 100.303759,40.0004 C100.998464,40.0004 101.634486,40.1482574 102.211843,40.4439767 C102.789199,40.739696 103.282057,41.1269416 103.690432,41.6057252 C104.098806,42.0845088 104.415643,42.6266527 104.640953,43.2321731 C104.866263,43.8376935 104.978916,44.4549396 104.978916,45.0839298 C104.978916,45.7504717 104.859222,46.3888402 104.619831,46.9990546 C104.380439,47.609269 104.051867,48.146719 103.634105,48.6114207 C103.216342,49.0761224 102.721137,49.4469394 102.148475,49.7238829 C101.575812,50.0008264 100.956219,50.139296 100.289677,50.139296 Z M96.5861636,45.069848 C96.5861636,45.614347 96.6753475,46.1377153 96.8537178,46.6399687 C97.0320882,47.1422221 97.285558,47.5881413 97.614135,47.9777397 C97.942712,48.3673381 98.3323046,48.6771346 98.7829244,48.9071385 C99.2335443,49.1371424 99.7357901,49.2521426 100.289677,49.2521426 C100.852952,49.2521426 101.364585,49.1301016 101.824593,48.8860158 C102.284601,48.64193 102.674194,48.3227458 102.993383,47.9284534 C103.312572,47.534161 103.559001,47.0882418 103.732677,46.5906824 C103.906354,46.093123 103.99319,45.5861832 103.99319,45.069848 C103.99319,44.525349 103.90166,44.0019807 103.718595,43.4997273 C103.535531,42.9974739 103.279714,42.5539017 102.951137,42.1689972 C102.62256,41.7840927 102.232968,41.4766432 101.782348,41.2466393 C101.331728,41.0166354 100.834176,40.9016352 100.289677,40.9016352 C99.7264022,40.9016352 99.2147686,41.0213293 98.7547608,41.2607211 C98.294753,41.5001129 97.9051605,41.8169502 97.5859714,42.2112426 C97.2667823,42.605535 97.0203533,43.0514542 96.8466769,43.5490136 C96.6730005,44.046573 96.5861636,44.5535128 96.5861636,45.069848 Z M106.837714,50.068887 L106.837714,40.070809 L107.82344,40.070809 L107.82344,49.1958154 L113.596978,49.1958154 L113.596978,50.068887 L106.837714,50.068887 Z M121.764422,49.1958154 L121.764422,50.068887 L115.047403,50.068887 L115.047403,40.070809 L121.637686,40.070809 L121.637686,40.9438806 L116.033129,40.9438806 L116.033129,44.5488214 L120.919514,44.5488214 L120.919514,45.3796476 L116.033129,45.3796476 L116.033129,49.1958154 L121.764422,49.1958154 Z M129.044713,41.9436884 C128.763075,41.6244993 128.387564,41.3663356 127.918169,41.1691894 C127.448773,40.9720432 126.91367,40.8734716 126.312843,40.8734716 C125.43038,40.8734716 124.787317,41.0401046 124.383637,41.3733755 C123.979957,41.7066464 123.778119,42.1596065 123.778119,42.7322692 C123.778119,43.0326824 123.832099,43.2791115 123.94006,43.4715637 C124.048021,43.6640159 124.214654,43.8306489 124.439964,43.9714676 C124.665274,44.1122863 124.953948,44.2343274 125.305995,44.3375944 C125.658041,44.4408614 126.07345,44.544127 126.552234,44.647394 C127.087345,44.760049 127.568468,44.8867839 127.995619,45.0276026 C128.422769,45.1684213 128.786545,45.344442 129.086958,45.5556701 C129.387371,45.7668982 129.617372,46.022715 129.776966,46.3231282 C129.936561,46.6235414 130.016357,46.9990523 130.016357,47.4496722 C130.016357,47.90968 129.927173,48.3086603 129.748803,48.6466252 C129.570432,48.9845901 129.321656,49.2662233 129.002467,49.4915332 C128.683278,49.7168431 128.303073,49.8834761 127.861841,49.9914371 C127.420609,50.0993981 126.937139,50.1533778 126.411416,50.1533778 C124.86241,50.1533778 123.524653,49.6699075 122.398103,48.7029524 L122.890966,47.9002898 C123.069336,48.0880481 123.282908,48.2664158 123.531688,48.4353982 C123.780468,48.6043806 124.057407,48.7522381 124.362514,48.8789749 C124.667621,49.0057117 124.993846,49.1042833 125.341199,49.1746927 C125.688552,49.2451021 126.054675,49.2803062 126.43958,49.2803062 C127.237552,49.2803062 127.859492,49.1371427 128.305418,48.8508113 C128.751344,48.5644799 128.974304,48.1302954 128.974304,47.5482448 C128.974304,47.2384437 128.910936,46.977933 128.784199,46.7667049 C128.657462,46.5554768 128.46736,46.3724153 128.213886,46.2175147 C127.960413,46.0626141 127.645922,45.9288384 127.270406,45.8161834 C126.894889,45.7035284 126.458358,45.5908752 125.960798,45.4782202 C125.435075,45.3561773 124.975074,45.2294424 124.580782,45.0980116 C124.18649,44.9665808 123.853224,44.8022948 123.580974,44.6051486 C123.308725,44.4080024 123.104541,44.1709612 122.968416,43.8940177 C122.832291,43.6170742 122.76423,43.2767675 122.76423,42.8730872 C122.76423,42.4130794 122.851067,42.0023644 123.024743,41.6409297 C123.19842,41.279495 123.444849,40.9790863 123.764038,40.7396945 C124.083227,40.5003027 124.458738,40.3172411 124.890582,40.1905043 C125.322426,40.0637675 125.801202,40.0004 126.326925,40.0004 C126.993467,40.0004 127.587244,40.1013186 128.108273,40.3031587 C128.629302,40.5049988 129.101038,40.788979 129.523494,41.1551076 L129.044713,41.9436884 Z M131.086574,44.999439 C131.086574,44.3986125 131.192186,43.800142 131.403414,43.2040095 C131.614642,42.607877 131.922092,42.0751209 132.325772,41.6057252 C132.729452,41.1363295 133.227004,40.7537778 133.818443,40.4580585 C134.409881,40.1623392 135.081107,40.0144818 135.83214,40.0144818 C136.723992,40.0144818 137.486749,40.2163189 138.120433,40.6199992 C138.754117,41.0236795 139.221159,41.5493948 139.521572,42.1971608 L138.747073,42.675942 C138.587478,42.347365 138.392682,42.0704257 138.162678,41.8451158 C137.932674,41.6198059 137.686245,41.4367443 137.423384,41.2959256 C137.160522,41.1551069 136.888277,41.0541883 136.606639,40.9931669 C136.325002,40.9321455 136.048063,40.9016352 135.775813,40.9016352 C135.174987,40.9016352 134.644577,41.0236762 134.18457,41.267762 C133.724562,41.5118478 133.337316,41.831032 133.022821,42.2253244 C132.708326,42.6196168 132.471285,43.063189 132.31169,43.5560545 C132.152096,44.04892 132.0723,44.5488189 132.0723,45.0557662 C132.0723,45.6096531 132.168524,46.1400623 132.360977,46.6470096 C132.553429,47.1539569 132.816286,47.6022231 133.149557,47.9918215 C133.482828,48.3814199 133.877115,48.6912164 134.332429,48.9212203 C134.787742,49.1512242 135.282947,49.2662244 135.818058,49.2662244 C136.099696,49.2662244 136.38837,49.2310203 136.684089,49.1606109 C136.979808,49.0902015 137.266135,48.9775483 137.543079,48.8226477 C137.820022,48.6677471 138.075839,48.4752978 138.310537,48.2452939 C138.545235,48.01529 138.742378,47.7360038 138.901973,47.4074268 L139.718717,47.8298808 C139.559122,48.2053973 139.333816,48.5363163 139.042791,48.8226477 C138.751765,49.1089791 138.427887,49.3507142 138.071146,49.5478604 C137.714406,49.7450066 137.336548,49.895211 136.937562,49.998478 C136.538575,50.101745 136.146636,50.1533778 135.761731,50.1533778 C135.076414,50.1533778 134.447433,50.0031734 133.87477,49.7027602 C133.302107,49.402347 132.809249,49.0104075 132.396181,48.5269299 C131.983113,48.0434523 131.661582,47.4942676 131.431578,46.8793593 C131.201574,46.264451 131.086574,45.6378171 131.086574,44.999439 Z M148.125552,49.1958154 L148.125552,50.068887 L141.408533,50.068887 L141.408533,40.070809 L147.998815,40.070809 L147.998815,40.9438806 L142.394259,40.9438806 L142.394259,44.5488214 L147.280644,44.5488214 L147.280644,45.3796476 L142.394259,45.3796476 L142.394259,49.1958154 L148.125552,49.1958154 Z M150.970075,41.901443 L150.970075,50.068887 L149.984349,50.068887 L149.984349,40.070809 L150.744766,40.070809 L157.363212,48.3931528 L157.363212,40.0848908 L158.348938,40.0848908 L158.348938,50.068887 L157.489949,50.068887 L150.970075,41.901443 Z M167.952726,40.9438806 L164.390031,40.9438806 L164.390031,50.068887 L163.404305,50.068887 L163.404305,40.9438806 L159.841609,40.9438806 L159.841609,40.070809 L167.952726,40.070809 L167.952726,40.9438806 Z M176.162415,49.1958154 L176.162415,50.068887 L169.445397,50.068887 L169.445397,40.070809 L176.035679,40.070809 L176.035679,40.9438806 L170.431123,40.9438806 L170.431123,44.5488214 L175.317507,44.5488214 L175.317507,45.3796476 L170.431123,45.3796476 L170.431123,49.1958154 L176.162415,49.1958154 Z M183.444114,41.9436884 C183.162477,41.6244993 182.786966,41.3663356 182.31757,41.1691894 C181.848175,40.9720432 181.313071,40.8734716 180.712245,40.8734716 C179.829781,40.8734716 179.186719,41.0401046 178.783038,41.3733755 C178.379358,41.7066464 178.177521,42.1596065 178.177521,42.7322692 C178.177521,43.0326824 178.231501,43.2791115 178.339462,43.4715637 C178.447423,43.6640159 178.614056,43.8306489 178.839366,43.9714676 C179.064676,44.1122863 179.35335,44.2343274 179.705396,44.3375944 C180.057443,44.4408614 180.472852,44.544127 180.951636,44.647394 C181.486747,44.760049 181.96787,44.8867839 182.39502,45.0276026 C182.82217,45.1684213 183.185946,45.344442 183.48636,45.5556701 C183.786773,45.7668982 184.016773,46.022715 184.176368,46.3231282 C184.335962,46.6235414 184.415758,46.9990523 184.415758,47.4496722 C184.415758,47.90968 184.326575,48.3086603 184.148204,48.6466252 C183.969834,48.9845901 183.721058,49.2662233 183.401869,49.4915332 C183.08268,49.7168431 182.702475,49.8834761 182.261243,49.9914371 C181.820011,50.0993981 181.336541,50.1533778 180.810818,50.1533778 C179.261812,50.1533778 177.924054,49.6699075 176.797505,48.7029524 L177.290368,47.9002898 C177.468738,48.0880481 177.68231,48.2664158 177.931089,48.4353982 C178.179869,48.6043806 178.456808,48.7522381 178.761916,48.8789749 C179.067023,49.0057117 179.393248,49.1042833 179.740601,49.1746927 C180.087954,49.2451021 180.454077,49.2803062 180.838981,49.2803062 C181.636954,49.2803062 182.258894,49.1371427 182.70482,48.8508113 C183.150746,48.5644799 183.373705,48.1302954 183.373705,47.5482448 C183.373705,47.2384437 183.310338,46.977933 183.183601,46.7667049 C183.056864,46.5554768 182.866762,46.3724153 182.613288,46.2175147 C182.359814,46.0626141 182.045324,45.9288384 181.669807,45.8161834 C181.294291,45.7035284 180.857759,45.5908752 180.3602,45.4782202 C179.834477,45.3561773 179.374476,45.2294424 178.980184,45.0980116 C178.585891,44.9665808 178.252625,44.8022948 177.980376,44.6051486 C177.708126,44.4080024 177.503942,44.1709612 177.367817,43.8940177 C177.231693,43.6170742 177.163631,43.2767675 177.163631,42.8730872 C177.163631,42.4130794 177.250468,42.0023644 177.424145,41.6409297 C177.597821,41.279495 177.84425,40.9790863 178.163439,40.7396945 C178.482628,40.5003027 178.858139,40.3172411 179.289983,40.1905043 C179.721827,40.0637675 180.200604,40.0004 180.726327,40.0004 C181.392869,40.0004 181.986645,40.1013186 182.507674,40.3031587 C183.028704,40.5049988 183.500439,40.788979 183.922895,41.1551076 L183.444114,41.9436884 Z M199.032667,50.068887 L199.032667,41.8591976 L195.385481,48.2100894 L194.808127,48.2100894 L191.160941,41.8591976 L191.160941,50.068887 L190.175215,50.068887 L190.175215,40.070809 L191.189104,40.070809 L195.089763,46.9145638 L199.018585,40.070809 L200.018393,40.070809 L200.018393,50.068887 L199.032667,50.068887 Z M206.580512,49.2521426 C207.209502,49.2521426 207.73287,49.1324485 208.150632,48.8930567 C208.568394,48.6536649 208.90166,48.3391745 209.15044,47.9495761 C209.39922,47.5599777 209.572894,47.1164054 209.671467,46.618846 C209.77004,46.1212866 209.819326,45.6190407 209.819326,45.1120934 L209.819326,40.070809 L210.805052,40.070809 L210.805052,45.1120934 C210.805052,45.7880232 210.729949,46.4287387 210.579743,47.0342591 C210.429536,47.6397795 210.187801,48.1725356 209.85453,48.6325434 C209.521259,49.0925512 209.087075,49.4586743 208.551964,49.7309238 C208.016853,50.0031733 207.364402,50.139296 206.594593,50.139296 C205.806009,50.139296 205.141824,49.9961325 204.602019,49.7098011 C204.062214,49.4234697 203.628029,49.0456119 203.299452,48.5762162 C202.970875,48.1068205 202.736181,47.5717175 202.595362,46.970891 C202.454543,46.3700645 202.384135,45.7504715 202.384135,45.1120934 L202.384135,40.070809 L203.355779,40.070809 L203.355779,45.1120934 C203.355779,45.6378166 203.407412,46.1494502 203.510679,46.6470096 C203.613946,47.144569 203.789967,47.5857943 204.038747,47.9706988 C204.287526,48.3556033 204.618445,48.6653998 205.031514,48.9000976 C205.444582,49.1347954 205.960909,49.2521426 206.580512,49.2521426 Z M211.73445,48.8156068 C211.940984,48.9564255 212.206189,49.0784666 212.530072,49.1817336 C212.853955,49.2850006 213.217731,49.3366334 213.621412,49.3366334 C214.128359,49.3366334 214.53438,49.2451026 214.839487,49.0620383 C215.144594,48.878974 215.376942,48.6090755 215.536536,48.2523348 C215.696131,47.8955941 215.799396,47.4567157 215.846336,46.9356865 C215.893276,46.4146573 215.916745,45.8208807 215.916745,45.1543388 L215.916745,40.070809 L216.902471,40.070809 L216.902471,45.1543388 C216.902471,45.9147598 216.867267,46.607108 216.796857,47.2314043 C216.726448,47.8557006 216.578591,48.3884567 216.353281,48.8296886 C216.127971,49.2709205 215.799399,49.6135742 215.367555,49.85766 C214.935711,50.1017458 214.353669,50.2237868 213.621412,50.2237868 C212.776499,50.2237868 212.053641,50.0172558 211.452814,49.6041876 L211.73445,48.8156068 Z M225.999314,49.1958154 L225.999314,50.068887 L219.282295,50.068887 L219.282295,40.070809 L225.872578,40.070809 L225.872578,40.9438806 L220.268021,40.9438806 L220.268021,44.5488214 L225.154406,44.5488214 L225.154406,45.3796476 L220.268021,45.3796476 L220.268021,49.1958154 L225.999314,49.1958154 Z M227.858111,50.068887 L227.858111,40.070809 L232.082651,40.070809 C232.514495,40.070809 232.911129,40.1623398 233.272563,40.3454041 C233.633998,40.5284684 233.946142,40.7678566 234.209003,41.0635759 C234.471865,41.3592952 234.676049,41.6949081 234.821561,42.0704246 C234.967074,42.4459411 235.039829,42.8261459 235.039829,43.2110504 C235.039829,43.577179 234.98585,43.9268736 234.877889,44.2601445 C234.769928,44.5934154 234.619723,44.8938242 234.427271,45.1613797 C234.234819,45.4289352 234.002471,45.6542418 233.730222,45.8373061 C233.457972,46.0203704 233.15287,46.1447584 232.814905,46.2104738 L235.265138,50.068887 L234.152676,50.068887 L231.801015,46.3794554 L228.843837,46.3794554 L228.843837,50.068887 L227.858111,50.068887 Z M228.843837,45.5063838 L232.110815,45.5063838 C232.40184,45.5063838 232.667045,45.4430163 232.906437,45.3162795 C233.145828,45.1895427 233.350013,45.0182158 233.518995,44.8022938 C233.687977,44.5863718 233.819406,44.3422897 233.913285,44.0700402 C234.007165,43.7977907 234.054103,43.5114636 234.054103,43.2110504 C234.054103,42.9106372 234.000124,42.6219632 233.892163,42.3450197 C233.784202,42.0680762 233.638691,41.8263411 233.455627,41.619807 C233.272563,41.4132729 233.056644,41.2489869 232.807864,41.126944 C232.559084,41.0049011 232.298574,40.9438806 232.026324,40.9438806 L228.843837,40.9438806 L228.843837,45.5063838 Z M243.770545,49.1958154 L243.770545,50.068887 L237.053527,50.068887 L237.053527,40.070809 L243.643809,40.070809 L243.643809,40.9438806 L238.039253,40.9438806 L238.039253,44.5488214 L242.925637,44.5488214 L242.925637,45.3796476 L238.039253,45.3796476 L238.039253,49.1958154 L243.770545,49.1958154 Z M251.050836,41.9436884 C250.769199,41.6244993 250.393688,41.3663356 249.924292,41.1691894 C249.454896,40.9720432 248.919793,40.8734716 248.318967,40.8734716 C247.436503,40.8734716 246.79344,41.0401046 246.38976,41.3733755 C245.98608,41.7066464 245.784243,42.1596065 245.784243,42.7322692 C245.784243,43.0326824 245.838222,43.2791115 245.946183,43.4715637 C246.054144,43.6640159 246.220777,43.8306489 246.446087,43.9714676 C246.671397,44.1122863 246.960071,44.2343274 247.312118,44.3375944 C247.664165,44.4408614 248.079574,44.544127 248.558357,44.647394 C249.093468,44.760049 249.574592,44.8867839 250.001742,45.0276026 C250.428892,45.1684213 250.792668,45.344442 251.093081,45.5556701 C251.393495,45.7668982 251.623495,46.022715 251.78309,46.3231282 C251.942684,46.6235414 252.02248,46.9990523 252.02248,47.4496722 C252.02248,47.90968 251.933296,48.3086603 251.754926,48.6466252 C251.576556,48.9845901 251.32778,49.2662233 251.008591,49.4915332 C250.689402,49.7168431 250.309197,49.8834761 249.867965,49.9914371 C249.426733,50.0993981 248.943263,50.1533778 248.417539,50.1533778 C246.868534,50.1533778 245.530776,49.6699075 244.404226,48.7029524 L244.897089,47.9002898 C245.07546,48.0880481 245.289032,48.2664158 245.537811,48.4353982 C245.786591,48.6043806 246.06353,48.7522381 246.368637,48.8789749 C246.673745,49.0057117 246.99997,49.1042833 247.347323,49.1746927 C247.694675,49.2451021 248.060799,49.2803062 248.445703,49.2803062 C249.243676,49.2803062 249.865616,49.1371427 250.311541,48.8508113 C250.757467,48.5644799 250.980427,48.1302954 250.980427,47.5482448 C250.980427,47.2384437 250.91706,46.977933 250.790323,46.7667049 C250.663586,46.5554768 250.473483,46.3724153 250.22001,46.2175147 C249.966536,46.0626141 249.652046,45.9288384 249.276529,45.8161834 C248.901013,45.7035284 248.464481,45.5908752 247.966922,45.4782202 C247.441199,45.3561773 246.981198,45.2294424 246.586905,45.0980116 C246.192613,44.9665808 245.859347,44.8022948 245.587098,44.6051486 C245.314848,44.4080024 245.110664,44.1709612 244.974539,43.8940177 C244.838415,43.6170742 244.770353,43.2767675 244.770353,42.8730872 C244.770353,42.4130794 244.85719,42.0023644 245.030866,41.6409297 C245.204543,41.279495 245.450972,40.9790863 245.770161,40.7396945 C246.08935,40.5003027 246.464861,40.3172411 246.896705,40.1905043 C247.328549,40.0637675 247.807325,40.0004 248.333049,40.0004 C248.99959,40.0004 249.593367,40.1013186 250.114396,40.3031587 C250.635425,40.5049988 251.107161,40.788979 251.529617,41.1551076 L251.050836,41.9436884 Z" id="PARA-ADOLESCENTES-MUJERES" fill="#509587"></path>
        </g>
    </g>
</svg>