<?xml version="1.0" encoding="UTF-8"?>
<svg width="305px" height="70px" viewBox="0 0 305 70" version="1.1" xmlns="http://www.w3.org/2000/svg" xmlns:xlink="http://www.w3.org/1999/xlink">
    <!-- Generator: Sketch 48.2 (47327) - http://www.bohemiancoding.com/sketch -->
    <title>libre-gratuito-m</title>
    <desc>Created with Sketch.</desc>
    <defs>
        <polygon id="path-1" points="0 70 304.312 70 304.312 0.916 0 0.916"></polygon>
    </defs>
    <g id="Desktop-HD" stroke="none" stroke-width="1" fill="none" fill-rule="evenodd" transform="translate(-1049.000000, -2404.000000)">
        <g id="libre-gratuito-m" transform="translate(1049.500000, 2403.000000)">
            <polygon id="Fill-1" fill="#F8E71C" points="0 1.0001 29 33.5571 0 70.0841 304.312 70.0841 277.103 33.5551 303.915 1.0001"></polygon>
            <polygon id="Fill-2" fill="#509587" points="59.25 33.5573 59.25 18.6473 62.147 18.6473 62.147 31.0163 69.75 31.0163 69.75 33.5573"></polygon>
            <polygon id="Fill-3" fill="#509587" points="71.514 33.5571 74.412 33.5571 74.412 18.6471 71.514 18.6471"></polygon>
            <g id="Group-49" transform="translate(0.000000, 0.084100)">
                <path d="M86.6123,29.084 C86.6123,28.818 86.5673,28.563 86.4763,28.318 C86.3843,28.073 86.2623,27.859 86.1083,27.677 C85.9543,27.496 85.7723,27.352 85.5623,27.247 C85.3523,27.142 85.1213,27.089 84.8693,27.089 L80.4183,27.089 L80.4183,31.016 L84.7223,31.016 C84.9883,31.016 85.2373,30.967 85.4673,30.869 C85.6993,30.771 85.8983,30.635 86.0663,30.459 C86.2343,30.285 86.3673,30.078 86.4663,29.84 C86.5633,29.602 86.6123,29.35 86.6123,29.084 Z M80.4183,21.041 L80.4183,24.8 L84.2813,24.8 C84.7713,24.8 85.1873,24.632 85.5313,24.296 C85.8743,23.96 86.0463,23.498 86.0463,22.91 C86.0463,22.336 85.8873,21.881 85.5733,21.545 C85.2583,21.209 84.8693,21.041 84.4073,21.041 L80.4183,21.041 Z M89.5313,29.63 C89.5313,30.26 89.4053,30.813 89.1533,31.289 C88.9013,31.765 88.5543,32.164 88.1143,32.486 C87.6733,32.809 87.1623,33.053 86.5813,33.221 C86.0003,33.389 85.3813,33.473 84.7223,33.473 L77.5193,33.473 L77.5193,18.563 L85.5003,18.563 C86.0173,18.563 86.4863,18.675 86.9063,18.899 C87.3263,19.123 87.6833,19.414 87.9773,19.771 C88.2713,20.127 88.4993,20.534 88.6603,20.989 C88.8213,21.444 88.9013,21.902 88.9013,22.364 C88.9013,23.092 88.7193,23.775 88.3553,24.412 C87.9913,25.049 87.4593,25.521 86.7593,25.829 C87.6133,26.081 88.2893,26.533 88.7863,27.184 C89.2833,27.834 89.5313,28.65 89.5313,29.63 Z" id="Fill-4" fill="#509587"></path>
                <path d="M94.6973,25.9341 L98.3303,25.9341 C98.5953,25.9341 98.8443,25.8711 99.0763,25.7451 C99.3063,25.6191 99.5073,25.4481 99.6753,25.2301 C99.8433,25.0141 99.9753,24.7581 100.0733,24.4641 C100.1713,24.1701 100.2203,23.8551 100.2203,23.5191 C100.2203,23.1691 100.1643,22.8471 100.0523,22.5531 C99.9403,22.2591 99.7903,22.0041 99.6003,21.7871 C99.4123,21.5701 99.1943,21.4021 98.9503,21.2831 C98.7053,21.1641 98.4563,21.1041 98.2043,21.1041 L94.6973,21.1041 L94.6973,25.9341 Z M91.8003,33.4731 L91.8003,18.5631 L98.3933,18.5631 C99.0793,18.5631 99.7133,18.7071 100.2943,18.9941 C100.8753,19.2811 101.3753,19.6591 101.7953,20.1271 C102.2163,20.5971 102.5443,21.1291 102.7823,21.7241 C103.0203,22.3191 103.1393,22.9171 103.1393,23.5191 C103.1393,24.4851 102.8973,25.3641 102.4153,26.1551 C101.9313,26.9461 101.2773,27.5171 100.4513,27.8661 L103.8533,33.4731 L100.5983,33.4731 L97.5533,28.4751 L94.6973,28.4751 L94.6973,33.4731 L91.8003,33.4731 Z" id="Fill-6" fill="#509587"></path>
                <polygon id="Fill-8" fill="#509587" points="116.1172 30.9322 116.1172 33.4732 105.7642 33.4732 105.7642 18.5632 115.9282 18.5632 115.9282 21.1042 108.6622 21.1042 108.6622 24.6952 114.9412 24.6952 114.9412 27.0472 108.6622 27.0472 108.6622 30.9322"></polygon>
                <polygon id="Fill-10" fill="#509587" points="124.3906 18.563 128.0666 25.745 131.8036 18.563 134.9326 18.563 129.5146 28.265 129.5146 33.473 126.6376 33.473 126.6376 28.223 121.2416 18.563"></polygon>
                <path d="M151.25,31.793 C150.06,32.983 148.674,33.578 147.092,33.578 C146.111,33.578 145.191,33.382 144.33,32.99 C143.469,32.598 142.72,32.059 142.083,31.373 C141.446,30.688 140.941,29.879 140.571,28.948 C140.2,28.017 140.015,27.012 140.015,25.934 C140.015,24.913 140.2,23.95 140.571,23.047 C140.941,22.144 141.453,21.353 142.104,20.674 C142.755,19.995 143.521,19.456 144.403,19.057 C145.285,18.658 146.244,18.458 147.28,18.458 C148.681,18.458 149.881,18.752 150.882,19.34 C151.883,19.928 152.636,20.719 153.14,21.713 L150.977,23.309 C150.599,22.567 150.07,22.001 149.391,21.608 C148.712,21.216 147.974,21.02 147.176,21.02 C146.546,21.02 145.968,21.153 145.443,21.419 C144.918,21.685 144.47,22.049 144.099,22.511 C143.728,22.973 143.44,23.505 143.238,24.107 C143.035,24.71 142.934,25.346 142.934,26.018 C142.934,26.718 143.046,27.373 143.27,27.981 C143.493,28.591 143.802,29.119 144.193,29.567 C144.585,30.015 145.051,30.369 145.59,30.627 C146.129,30.887 146.714,31.016 147.344,31.016 C148.785,31.016 150.087,30.337 151.25,28.979 L151.25,27.929 L148.246,27.929 L148.246,25.808 L153.644,25.808 L153.644,33.473 L151.25,33.473 L151.25,31.793 Z" id="Fill-12" fill="#509587"></path>
                <path d="M159.0195,25.9341 L162.6525,25.9341 C162.9175,25.9341 163.1665,25.8711 163.3985,25.7451 C163.6285,25.6191 163.8295,25.4481 163.9975,25.2301 C164.1655,25.0141 164.2975,24.7581 164.3955,24.4641 C164.4935,24.1701 164.5425,23.8551 164.5425,23.5191 C164.5425,23.1691 164.4865,22.8471 164.3745,22.5531 C164.2625,22.2591 164.1125,22.0041 163.9225,21.7871 C163.7345,21.5701 163.5165,21.4021 163.2725,21.2831 C163.0275,21.1641 162.7785,21.1041 162.5265,21.1041 L159.0195,21.1041 L159.0195,25.9341 Z M156.1225,33.4731 L156.1225,18.5631 L162.7155,18.5631 C163.4015,18.5631 164.0355,18.7071 164.6165,18.9941 C165.1975,19.2811 165.6975,19.6591 166.1175,20.1271 C166.5385,20.5971 166.8665,21.1291 167.1045,21.7241 C167.3425,22.3191 167.4615,22.9171 167.4615,23.5191 C167.4615,24.4851 167.2195,25.3641 166.7375,26.1551 C166.2535,26.9461 165.5995,27.5171 164.7735,27.8661 L168.1755,33.4731 L164.9205,33.4731 L161.8755,28.4751 L159.0195,28.4751 L159.0195,33.4731 L156.1225,33.4731 Z" id="Fill-14" fill="#509587"></path>
                <path d="M177.4365,27.7193 L175.3785,21.8603 L173.2365,27.7193 L177.4365,27.7193 Z M174.0975,18.5633 L176.6595,18.5633 L182.3295,33.4733 L179.3475,33.4733 L177.9615,29.7563 L172.7535,29.7563 L171.3885,33.4733 L168.4065,33.4733 L174.0975,18.5633 Z" id="Fill-16" fill="#509587"></path>
                <polygon id="Fill-18" fill="#509587" points="193.6484 21.104 188.8814 21.104 188.8814 33.473 186.0044 33.473 186.0044 21.104 181.2374 21.104 181.2374 18.563 193.6484 18.563"></polygon>
                <path d="M201.7969,31.0162 C202.4829,31.0162 203.0599,30.8762 203.5289,30.5962 C203.9979,30.3162 204.3759,29.9522 204.6629,29.5042 C204.9499,29.0562 205.1529,28.5422 205.2729,27.9602 C205.3909,27.3802 205.4499,26.7812 205.4499,26.1652 L205.4499,18.5632 L208.3269,18.5632 L208.3269,26.1652 C208.3269,27.1872 208.2049,28.1462 207.9599,29.0422 C207.7149,29.9382 207.3299,30.7222 206.8049,31.3942 C206.2799,32.0662 205.6049,32.5982 204.7779,32.9902 C203.9519,33.3822 202.9659,33.5782 201.8179,33.5782 C200.6279,33.5782 199.6159,33.3712 198.7829,32.9582 C197.9499,32.5462 197.2749,32.0002 196.7569,31.3212 C196.2379,30.6412 195.8639,29.8542 195.6329,28.9582 C195.4019,28.0622 195.2869,27.1312 195.2869,26.1652 L195.2869,18.5632 L198.1849,18.5632 L198.1849,26.1652 C198.1849,26.7952 198.2439,27.4012 198.3629,27.9812 C198.4819,28.5632 198.6849,29.0772 198.9719,29.5252 C199.2589,29.9732 199.6339,30.3332 200.0959,30.6062 C200.5579,30.8802 201.1249,31.0162 201.7969,31.0162" id="Fill-20" fill="#509587"></path>
                <mask id="mask-2" fill="white">
                    <use xlink:href="#path-1"></use>
                </mask>
                <g id="Clip-23"></g>
                <polygon id="Fill-22" fill="#509587" mask="url(#mask-2)" points="211.247 33.473 214.144 33.473 214.144 18.563 211.247 18.563"></polygon>
                <polygon id="Fill-24" fill="#509587" mask="url(#mask-2)" points="228.4033 21.104 223.6363 21.104 223.6363 33.473 220.7593 33.473 220.7593 21.104 215.9923 21.104 215.9923 18.563 228.4033 18.563"></polygon>
                <path d="M231.5947,26.0181 C231.5947,26.6621 231.6937,27.2851 231.8887,27.8871 C232.0847,28.4891 232.3677,29.0211 232.7397,29.4831 C233.1107,29.9451 233.5657,30.3161 234.1047,30.5961 C234.6437,30.8761 235.2557,31.0161 235.9427,31.0161 C236.6417,31.0161 237.2617,30.8721 237.8007,30.5851 C238.3397,30.2991 238.7947,29.9171 239.1657,29.4411 C239.5357,28.9651 239.8167,28.4301 240.0057,27.8341 C240.1947,27.2401 240.2887,26.6341 240.2887,26.0181 C240.2887,25.3741 240.1877,24.7511 239.9847,24.1491 C239.7817,23.5471 239.4937,23.0151 239.1237,22.5531 C238.7527,22.0911 238.2977,21.7241 237.7587,21.4511 C237.2197,21.1781 236.6147,21.0411 235.9427,21.0411 C235.2417,21.0411 234.6187,21.1851 234.0737,21.4721 C233.5277,21.7591 233.0727,22.1371 232.7077,22.6051 C232.3437,23.0751 232.0677,23.6071 231.8787,24.2021 C231.6897,24.7971 231.5947,25.4021 231.5947,26.0181 M235.9207,33.5781 C234.8287,33.5781 233.8387,33.3651 232.9487,32.9371 C232.0607,32.5111 231.2977,31.9441 230.6607,31.2371 C230.0237,30.5301 229.5307,29.7211 229.1797,28.8111 C228.8297,27.9011 228.6557,26.9701 228.6557,26.0181 C228.6557,25.0241 228.8407,24.0721 229.2117,23.1621 C229.5817,22.2521 230.0937,21.4471 230.7447,20.7471 C231.3957,20.0471 232.1687,19.4911 233.0657,19.0781 C233.9607,18.6651 234.9347,18.4581 235.9847,18.4581 C237.0627,18.4581 238.0457,18.6791 238.9347,19.1201 C239.8237,19.5601 240.5827,20.1381 241.2127,20.8521 C241.8427,21.5661 242.3327,22.3781 242.6837,23.2881 C243.0327,24.1981 243.2077,25.1221 243.2077,26.0601 C243.2077,27.0541 243.0267,28.0021 242.6617,28.9061 C242.2977,29.8091 241.7937,30.6061 241.1507,31.3001 C240.5057,31.9931 239.7367,32.5461 238.8397,32.9581 C237.9447,33.3721 236.9707,33.5781 235.9207,33.5781" id="Fill-25" fill="#509587" mask="url(#mask-2)"></path>
                <polygon id="Fill-47" fill="#509587" mask="url(#mask-2)" points="300.083 5.5694 4.145 5.5694 3.18 4.5694 300.906 4.5694"></polygon>
                <polygon id="Fill-48" fill="#509587" mask="url(#mask-2)" points="301.9922 66.8848 2.4732 66.8848 3.2672 65.8848 301.2472 65.8848"></polygon>
            </g>
            <path d="M44.9775198,50.5995436 L44.9775198,40.6014656 L49.117569,40.6014656 C49.549413,40.6014656 49.9460464,40.6929963 50.3074811,40.8760607 C50.6689158,41.059125 50.9810592,41.2985132 51.2439208,41.5942325 C51.5067824,41.8899517 51.7133134,42.2255646 51.86352,42.6010812 C52.0137266,42.9765977 52.0888288,43.3568025 52.0888288,43.741707 C52.0888288,44.1547752 52.0184205,44.5514086 51.8776018,44.9316191 C51.7367831,45.3118296 51.5396399,45.6474424 51.2861662,45.9384678 C51.0326925,46.2294931 50.7299369,46.4641874 50.3778901,46.6425578 C50.0258433,46.8209281 49.6339038,46.910112 49.2020598,46.910112 L45.9632458,46.910112 L45.9632458,50.5995436 L44.9775198,50.5995436 Z M45.9632458,46.0370404 L49.1598144,46.0370404 C49.4508397,46.0370404 49.7160443,45.9736729 49.9554361,45.8469361 C50.1948279,45.7201992 50.399012,45.5512193 50.5679944,45.3399913 C50.7369769,45.1287632 50.8684057,44.8846811 50.9622848,44.6077377 C51.0561639,44.3307942 51.1031028,44.0421202 51.1031028,43.741707 C51.1031028,43.4319058 51.0491231,43.1385379 50.9411621,42.8615945 C50.8332011,42.584651 50.6876906,42.3429159 50.5046263,42.1363818 C50.321562,41.9298477 50.1056432,41.7679086 49.8568635,41.6505597 C49.6080838,41.5332107 49.3475731,41.4745372 49.0753236,41.4745372 L45.9632458,41.4745372 L45.9632458,46.0370404 Z M55.5670334,40.6014656 L56.3978596,40.6014656 L60.5519906,50.5995436 L59.5099374,50.5995436 L58.2144118,47.473384 L53.7223176,47.473384 L52.4408738,50.5995436 L51.3847388,50.5995436 L55.5670334,40.6014656 Z M57.989103,46.698885 L55.9754056,41.7561732 L53.9335446,46.698885 L57.989103,46.698885 Z M61.9883342,50.5995436 L61.9883342,40.6014656 L66.2128742,40.6014656 C66.6447182,40.6014656 67.0413516,40.6929963 67.4027863,40.8760607 C67.764221,41.059125 68.0763644,41.2985132 68.339226,41.5942325 C68.6020876,41.8899517 68.8062716,42.2255646 68.9517843,42.6010812 C69.097297,42.9765977 69.1700522,43.3568025 69.1700522,43.741707 C69.1700522,44.1078356 69.1160725,44.4575301 69.0081115,44.7908011 C68.9001505,45.124072 68.7499461,45.4244807 68.5574939,45.6920363 C68.3650417,45.9595918 68.1326943,46.1848983 67.8604448,46.3679627 C67.5881953,46.551027 67.2830927,46.675415 66.9451278,46.7411304 L69.395361,50.5995436 L68.2828988,50.5995436 L65.9312382,46.910112 L62.9740602,46.910112 L62.9740602,50.5995436 L61.9883342,50.5995436 Z M62.9740602,46.0370404 L66.2410378,46.0370404 C66.5320631,46.0370404 66.7972677,45.9736729 67.0366595,45.8469361 C67.2760513,45.7201992 67.4802354,45.5488724 67.6492178,45.3329504 C67.8182003,45.1170283 67.9496291,44.8729463 68.0435082,44.6006968 C68.1373873,44.3284473 68.1843262,44.0421202 68.1843262,43.741707 C68.1843262,43.4412937 68.1303465,43.1526197 68.0223855,42.8756763 C67.9144245,42.5987328 67.768914,42.3569977 67.5858497,42.1504636 C67.4027854,41.9439295 67.1868666,41.7796434 66.9380869,41.6576006 C66.6893072,41.5355577 66.4287965,41.4745372 66.156547,41.4745372 L62.9740602,41.4745372 L62.9740602,46.0370404 Z M73.971946,40.6014656 L74.8027722,40.6014656 L78.9569032,50.5995436 L77.91485,50.5995436 L76.6193244,47.473384 L72.1272302,47.473384 L70.8457864,50.5995436 L69.7896514,50.5995436 L73.971946,40.6014656 Z M76.3940156,46.698885 L74.3803182,41.7561732 L72.3384572,46.698885 L76.3940156,46.698885 Z M85.7724944,40.6014656 L86.6033206,40.6014656 L90.7574516,50.5995436 L89.7153984,50.5995436 L88.4198728,47.473384 L83.9277786,47.473384 L82.6463348,50.5995436 L81.5901998,50.5995436 L85.7724944,40.6014656 Z M88.194564,46.698885 L86.1808666,41.7561732 L84.1390056,46.698885 L88.194564,46.698885 Z M92.1937952,50.5995436 L92.1937952,40.6014656 L95.587509,40.6014656 C96.3854817,40.6014656 97.0825238,40.7328944 97.6786563,40.995756 C98.2747888,41.2586175 98.7723408,41.6153529 99.1713271,42.0659728 C99.5703134,42.5165926 99.8707222,43.0446548 100.072562,43.6501753 C100.274402,44.2556957 100.375321,44.9011051 100.375321,45.5864228 C100.375321,46.3468438 100.262668,47.0344981 100.037358,47.6494065 C99.8120479,48.2643148 99.4905167,48.7900301 99.0727545,49.2265681 C98.6549924,49.663106 98.1527465,50.0010659 97.5660019,50.2404577 C96.9792573,50.4798495 96.3197663,50.5995436 95.587509,50.5995436 L92.1937952,50.5995436 Z M99.389595,45.5864228 C99.389595,44.9855963 99.3051051,44.4340646 99.1361226,43.9318113 C98.9671402,43.4295579 98.7207111,42.9953734 98.3968281,42.6292448 C98.0729451,42.2631161 97.6763117,41.979136 97.206916,41.7772959 C96.7375203,41.5754557 96.1977234,41.4745372 95.587509,41.4745372 L93.1795212,41.4745372 L93.1795212,49.726472 L95.587509,49.726472 C96.2071113,49.726472 96.7539491,49.6208595 97.2280387,49.4096315 C97.7021283,49.1984034 98.0987617,48.9073824 98.4179508,48.5365599 C98.7371399,48.1657373 98.978875,47.7292058 99.1431635,47.2269525 C99.307452,46.7246991 99.389595,46.1778613 99.389595,45.5864228 Z M106.289677,50.6699526 C105.594971,50.6699526 104.95895,50.526789 104.381593,50.2404577 C103.804236,49.9541263 103.309031,49.5739215 102.895963,49.0998319 C102.482895,48.6257422 102.163711,48.0835983 101.938401,47.473384 C101.713091,46.8631696 101.600438,46.2388827 101.600438,45.6005046 C101.600438,44.9339627 101.720132,44.2955941 101.959524,43.6853798 C102.198915,43.0751654 102.529834,42.5353684 102.95229,42.0659728 C103.374747,41.5965771 103.872298,41.2234131 104.444961,40.9464697 C105.017624,40.6695262 105.637217,40.5310566 106.303759,40.5310566 C106.998464,40.5310566 107.634486,40.678914 108.211843,40.9746333 C108.789199,41.2703525 109.282057,41.6575982 109.690432,42.1363818 C110.098806,42.6151654 110.415643,43.1573092 110.640953,43.7628297 C110.866263,44.3683501 110.978916,44.9855962 110.978916,45.6145864 C110.978916,46.2811282 110.859222,46.9194968 110.619831,47.5297112 C110.380439,48.1399255 110.051867,48.6773755 109.634105,49.1420773 C109.216342,49.606779 108.721137,49.977596 108.148475,50.2545395 C107.575812,50.5314829 106.956219,50.6699526 106.289677,50.6699526 Z M102.586164,45.6005046 C102.586164,46.1450036 102.675347,46.6683719 102.853718,47.1706253 C103.032088,47.6728786 103.285558,48.1187978 103.614135,48.5083963 C103.942712,48.8979947 104.332305,49.2077912 104.782924,49.4377951 C105.233544,49.6677989 105.73579,49.7827992 106.289677,49.7827992 C106.852952,49.7827992 107.364585,49.6607581 107.824593,49.4166724 C108.284601,49.1725866 108.674194,48.8534023 108.993383,48.45911 C109.312572,48.0648176 109.559001,47.6188984 109.732677,47.121339 C109.906354,46.6237795 109.99319,46.1168398 109.99319,45.6005046 C109.99319,45.0560056 109.90166,44.5326372 109.718595,44.0303839 C109.535531,43.5281305 109.279714,43.0845582 108.951137,42.6996538 C108.62256,42.3147493 108.232968,42.0072997 107.782348,41.7772959 C107.331728,41.547292 106.834176,41.4322918 106.289677,41.4322918 C105.726402,41.4322918 105.214769,41.5519859 104.754761,41.7913777 C104.294753,42.0307695 103.90516,42.3476068 103.585971,42.7418992 C103.266782,43.1361915 103.020353,43.5821107 102.846677,44.0796702 C102.673001,44.5772296 102.586164,45.0841693 102.586164,45.6005046 Z M112.837714,50.5995436 L112.837714,40.6014656 L113.82344,40.6014656 L113.82344,49.726472 L119.596978,49.726472 L119.596978,50.5995436 L112.837714,50.5995436 Z M127.764422,49.726472 L127.764422,50.5995436 L121.047403,50.5995436 L121.047403,40.6014656 L127.637686,40.6014656 L127.637686,41.4745372 L122.033129,41.4745372 L122.033129,45.079478 L126.919514,45.079478 L126.919514,45.9103042 L122.033129,45.9103042 L122.033129,49.726472 L127.764422,49.726472 Z M135.044713,42.474345 C134.763075,42.1551559 134.387564,41.8969921 133.918169,41.699846 C133.448773,41.5026998 132.91367,41.4041282 132.312843,41.4041282 C131.43038,41.4041282 130.787317,41.5707611 130.383637,41.9040321 C129.979957,42.237303 129.778119,42.690263 129.778119,43.2629258 C129.778119,43.563339 129.832099,43.809768 129.94006,44.0022203 C130.048021,44.1946725 130.214654,44.3613055 130.439964,44.5021242 C130.665274,44.6429429 130.953948,44.7649839 131.305995,44.868251 C131.658041,44.971518 132.07345,45.0747835 132.552234,45.1780506 C133.087345,45.2907055 133.568468,45.4174405 133.995619,45.5582592 C134.422769,45.6990779 134.786545,45.8750986 135.086958,46.0863267 C135.387371,46.2975547 135.617372,46.5533715 135.776966,46.8537848 C135.936561,47.154198 136.016357,47.5297089 136.016357,47.9803288 C136.016357,48.4403365 135.927173,48.8393169 135.748803,49.1772818 C135.570432,49.5152467 135.321656,49.7968798 135.002467,50.0221898 C134.683278,50.2474997 134.303073,50.4141327 133.861841,50.5220937 C133.420609,50.6300547 132.937139,50.6840344 132.411416,50.6840344 C130.86241,50.6840344 129.524653,50.2005641 128.398103,49.233609 L128.890966,48.4309464 C129.069336,48.6187046 129.282908,48.7970723 129.531688,48.9660548 C129.780468,49.1350372 130.057407,49.2828946 130.362514,49.4096315 C130.667621,49.5363683 130.993846,49.6349399 131.341199,49.7053493 C131.688552,49.7757586 132.054675,49.8109628 132.43958,49.8109628 C133.237552,49.8109628 133.859492,49.6677992 134.305418,49.3814679 C134.751344,49.0951365 134.974304,48.660952 134.974304,48.0789014 C134.974304,47.7691002 134.910936,47.5085895 134.784199,47.2973615 C134.657462,47.0861334 134.46736,46.9030718 134.213886,46.7481713 C133.960413,46.5932707 133.645922,46.4594949 133.270406,46.34684 C132.894889,46.234185 132.458358,46.1215317 131.960798,46.0088768 C131.435075,45.8868339 130.975074,45.760099 130.580782,45.6286682 C130.18649,45.4972374 129.853224,45.3329513 129.580974,45.1358052 C129.308725,44.938659 129.104541,44.7016177 128.968416,44.4246743 C128.832291,44.1477308 128.76423,43.807424 128.76423,43.4037438 C128.76423,42.943736 128.851067,42.5330209 129.024743,42.1715863 C129.19842,41.8101516 129.444849,41.5097429 129.764038,41.2703511 C130.083227,41.0309593 130.458738,40.8478977 130.890582,40.7211609 C131.322426,40.594424 131.801202,40.5310566 132.326925,40.5310566 C132.993467,40.5310566 133.587244,40.6319751 134.108273,40.8338153 C134.629302,41.0356554 135.101038,41.3196355 135.523494,41.6857642 L135.044713,42.474345 Z M137.086574,45.5300956 C137.086574,44.9292691 137.192186,44.3307986 137.403414,43.7346661 C137.614642,43.1385335 137.922092,42.6057774 138.325772,42.1363818 C138.729452,41.6669861 139.227004,41.2844343 139.818443,40.9887151 C140.409881,40.6929958 141.081107,40.5451384 141.83214,40.5451384 C142.723992,40.5451384 143.486749,40.7469755 144.120433,41.1506558 C144.754117,41.554336 145.221159,42.0800513 145.521572,42.7278174 L144.747073,43.2065986 C144.587478,42.8780216 144.392682,42.6010823 144.162678,42.3757724 C143.932674,42.1504624 143.686245,41.9674009 143.423384,41.8265822 C143.160522,41.6857635 142.888277,41.5848449 142.606639,41.5238235 C142.325002,41.462802 142.048063,41.4322918 141.775813,41.4322918 C141.174987,41.4322918 140.644577,41.5543328 140.18457,41.7984186 C139.724562,42.0425043 139.337316,42.3616886 139.022821,42.755981 C138.708326,43.1502733 138.471285,43.5938456 138.31169,44.0867111 C138.152096,44.5795765 138.0723,45.0794754 138.0723,45.5864228 C138.0723,46.1403097 138.168524,46.6707188 138.360977,47.1776662 C138.553429,47.6846135 138.816286,48.1328796 139.149557,48.5224781 C139.482828,48.9120765 139.877115,49.221873 140.332429,49.4518769 C140.787742,49.6818807 141.282947,49.796881 141.818058,49.796881 C142.099696,49.796881 142.38837,49.7616768 142.684089,49.6912675 C142.979808,49.6208581 143.266135,49.5082048 143.543079,49.3533043 C143.820022,49.1984037 144.075839,49.0059543 144.310537,48.7759505 C144.545235,48.5459466 144.742378,48.2666603 144.901973,47.9380834 L145.718717,48.3605374 C145.559122,48.7360539 145.333816,49.0669729 145.042791,49.3533043 C144.751765,49.6396356 144.427887,49.8813708 144.071146,50.078517 C143.714406,50.2756631 143.336548,50.4258675 142.937562,50.5291346 C142.538575,50.6324016 142.146636,50.6840344 141.761731,50.6840344 C141.076414,50.6840344 140.447433,50.53383 139.87477,50.2334168 C139.302107,49.9330035 138.809249,49.541064 138.396181,49.0575865 C137.983113,48.5741089 137.661582,48.0249242 137.431578,47.4100159 C137.201574,46.7951075 137.086574,46.1684737 137.086574,45.5300956 Z M154.125552,49.726472 L154.125552,50.5995436 L147.408533,50.5995436 L147.408533,40.6014656 L153.998815,40.6014656 L153.998815,41.4745372 L148.394259,41.4745372 L148.394259,45.079478 L153.280644,45.079478 L153.280644,45.9103042 L148.394259,45.9103042 L148.394259,49.726472 L154.125552,49.726472 Z M156.970075,42.4320996 L156.970075,50.5995436 L155.984349,50.5995436 L155.984349,40.6014656 L156.744766,40.6014656 L163.363212,48.9238094 L163.363212,40.6155474 L164.348938,40.6155474 L164.348938,50.5995436 L163.489949,50.5995436 L156.970075,42.4320996 Z M173.952726,41.4745372 L170.390031,41.4745372 L170.390031,50.5995436 L169.404305,50.5995436 L169.404305,41.4745372 L165.841609,41.4745372 L165.841609,40.6014656 L173.952726,40.6014656 L173.952726,41.4745372 Z M182.162415,49.726472 L182.162415,50.5995436 L175.445397,50.5995436 L175.445397,40.6014656 L182.035679,40.6014656 L182.035679,41.4745372 L176.431123,41.4745372 L176.431123,45.079478 L181.317507,45.079478 L181.317507,45.9103042 L176.431123,45.9103042 L176.431123,49.726472 L182.162415,49.726472 Z M189.444114,42.474345 C189.162477,42.1551559 188.786966,41.8969921 188.31757,41.699846 C187.848175,41.5026998 187.313071,41.4041282 186.712245,41.4041282 C185.829781,41.4041282 185.186719,41.5707611 184.783038,41.9040321 C184.379358,42.237303 184.177521,42.690263 184.177521,43.2629258 C184.177521,43.563339 184.231501,43.809768 184.339462,44.0022203 C184.447423,44.1946725 184.614056,44.3613055 184.839366,44.5021242 C185.064676,44.6429429 185.35335,44.7649839 185.705396,44.868251 C186.057443,44.971518 186.472852,45.0747835 186.951636,45.1780506 C187.486747,45.2907055 187.96787,45.4174405 188.39502,45.5582592 C188.82217,45.6990779 189.185946,45.8750986 189.48636,46.0863267 C189.786773,46.2975547 190.016773,46.5533715 190.176368,46.8537848 C190.335962,47.154198 190.415758,47.5297089 190.415758,47.9803288 C190.415758,48.4403365 190.326575,48.8393169 190.148204,49.1772818 C189.969834,49.5152467 189.721058,49.7968798 189.401869,50.0221898 C189.08268,50.2474997 188.702475,50.4141327 188.261243,50.5220937 C187.820011,50.6300547 187.336541,50.6840344 186.810818,50.6840344 C185.261812,50.6840344 183.924054,50.2005641 182.797505,49.233609 L183.290368,48.4309464 C183.468738,48.6187046 183.68231,48.7970723 183.931089,48.9660548 C184.179869,49.1350372 184.456808,49.2828946 184.761916,49.4096315 C185.067023,49.5363683 185.393248,49.6349399 185.740601,49.7053493 C186.087954,49.7757586 186.454077,49.8109628 186.838981,49.8109628 C187.636954,49.8109628 188.258894,49.6677992 188.70482,49.3814679 C189.150746,49.0951365 189.373705,48.660952 189.373705,48.0789014 C189.373705,47.7691002 189.310338,47.5085895 189.183601,47.2973615 C189.056864,47.0861334 188.866762,46.9030718 188.613288,46.7481713 C188.359814,46.5932707 188.045324,46.4594949 187.669807,46.34684 C187.294291,46.234185 186.857759,46.1215317 186.3602,46.0088768 C185.834477,45.8868339 185.374476,45.760099 184.980184,45.6286682 C184.585891,45.4972374 184.252625,45.3329513 183.980376,45.1358052 C183.708126,44.938659 183.503942,44.7016177 183.367817,44.4246743 C183.231693,44.1477308 183.163631,43.807424 183.163631,43.4037438 C183.163631,42.943736 183.250468,42.5330209 183.424145,42.1715863 C183.597821,41.8101516 183.84425,41.5097429 184.163439,41.2703511 C184.482628,41.0309593 184.858139,40.8478977 185.289983,40.7211609 C185.721827,40.594424 186.200604,40.5310566 186.726327,40.5310566 C187.392869,40.5310566 187.986645,40.6319751 188.507674,40.8338153 C189.028704,41.0356554 189.500439,41.3196355 189.922895,41.6857642 L189.444114,42.474345 Z M205.032667,50.5995436 L205.032667,42.3898542 L201.385481,48.740746 L200.808127,48.740746 L197.160941,42.3898542 L197.160941,50.5995436 L196.175215,50.5995436 L196.175215,40.6014656 L197.189104,40.6014656 L201.089763,47.4452204 L205.018585,40.6014656 L206.018393,40.6014656 L206.018393,50.5995436 L205.032667,50.5995436 Z M212.580512,49.7827992 C213.209502,49.7827992 213.73287,49.6631051 214.150632,49.4237133 C214.568394,49.1843215 214.90166,48.8698311 215.15044,48.4802327 C215.39922,48.0906342 215.572894,47.647062 215.671467,47.1495026 C215.77004,46.6519431 215.819326,46.1496973 215.819326,45.64275 L215.819326,40.6014656 L216.805052,40.6014656 L216.805052,45.64275 C216.805052,46.3186797 216.729949,46.9593952 216.579743,47.5649157 C216.429536,48.1704361 216.187801,48.7031922 215.85453,49.1632 C215.521259,49.6232077 215.087075,49.9893309 214.551964,50.2615804 C214.016853,50.5338299 213.364402,50.6699526 212.594593,50.6699526 C211.806009,50.6699526 211.141824,50.526789 210.602019,50.2404577 C210.062214,49.9541263 209.628029,49.5762684 209.299452,49.1068728 C208.970875,48.6374771 208.736181,48.102374 208.595362,47.5015476 C208.454543,46.9007211 208.384135,46.2811281 208.384135,45.64275 L208.384135,40.6014656 L209.355779,40.6014656 L209.355779,45.64275 C209.355779,46.1684731 209.407412,46.6801067 209.510679,47.1776662 C209.613946,47.6752256 209.789967,48.1164509 210.038747,48.5013554 C210.287526,48.8862598 210.618445,49.1960563 211.031514,49.4307542 C211.444582,49.665452 211.960909,49.7827992 212.580512,49.7827992 Z M217.73445,49.3462634 C217.940984,49.4870821 218.206189,49.6091231 218.530072,49.7123902 C218.853955,49.8156572 219.217731,49.86729 219.621412,49.86729 C220.128359,49.86729 220.53438,49.7757592 220.839487,49.5926949 C221.144594,49.4096305 221.376942,49.1397321 221.536536,48.7829914 C221.696131,48.4262506 221.799396,47.9873723 221.846336,47.4663431 C221.893276,46.9453139 221.916745,46.3515372 221.916745,45.6849954 L221.916745,40.6014656 L222.902471,40.6014656 L222.902471,45.6849954 C222.902471,46.4454164 222.867267,47.1377646 222.796857,47.7620609 C222.726448,48.3863571 222.578591,48.9191132 222.353281,49.3603452 C222.127971,49.8015771 221.799399,50.1442308 221.367555,50.3883166 C220.935711,50.6324023 220.353669,50.7544434 219.621412,50.7544434 C218.776499,50.7544434 218.053641,50.5479124 217.452814,50.1348442 L217.73445,49.3462634 Z M231.999314,49.726472 L231.999314,50.5995436 L225.282295,50.5995436 L225.282295,40.6014656 L231.872578,40.6014656 L231.872578,41.4745372 L226.268021,41.4745372 L226.268021,45.079478 L231.154406,45.079478 L231.154406,45.9103042 L226.268021,45.9103042 L226.268021,49.726472 L231.999314,49.726472 Z M233.858111,50.5995436 L233.858111,40.6014656 L238.082651,40.6014656 C238.514495,40.6014656 238.911129,40.6929963 239.272563,40.8760607 C239.633998,41.059125 239.946142,41.2985132 240.209003,41.5942325 C240.471865,41.8899517 240.676049,42.2255646 240.821561,42.6010812 C240.967074,42.9765977 241.039829,43.3568025 241.039829,43.741707 C241.039829,44.1078356 240.98585,44.4575301 240.877889,44.7908011 C240.769928,45.124072 240.619723,45.4244807 240.427271,45.6920363 C240.234819,45.9595918 240.002471,46.1848983 239.730222,46.3679627 C239.457972,46.551027 239.15287,46.675415 238.814905,46.7411304 L241.265138,50.5995436 L240.152676,50.5995436 L237.801015,46.910112 L234.843837,46.910112 L234.843837,50.5995436 L233.858111,50.5995436 Z M234.843837,46.0370404 L238.110815,46.0370404 C238.40184,46.0370404 238.667045,45.9736729 238.906437,45.8469361 C239.145828,45.7201992 239.350013,45.5488724 239.518995,45.3329504 C239.687977,45.1170283 239.819406,44.8729463 239.913285,44.6006968 C240.007165,44.3284473 240.054103,44.0421202 240.054103,43.741707 C240.054103,43.4412937 240.000124,43.1526197 239.892163,42.8756763 C239.784202,42.5987328 239.638691,42.3569977 239.455627,42.1504636 C239.272563,41.9439295 239.056644,41.7796434 238.807864,41.6576006 C238.559084,41.5355577 238.298574,41.4745372 238.026324,41.4745372 L234.843837,41.4745372 L234.843837,46.0370404 Z M249.770545,49.726472 L249.770545,50.5995436 L243.053527,50.5995436 L243.053527,40.6014656 L249.643809,40.6014656 L249.643809,41.4745372 L244.039253,41.4745372 L244.039253,45.079478 L248.925637,45.079478 L248.925637,45.9103042 L244.039253,45.9103042 L244.039253,49.726472 L249.770545,49.726472 Z M257.050836,42.474345 C256.769199,42.1551559 256.393688,41.8969921 255.924292,41.699846 C255.454896,41.5026998 254.919793,41.4041282 254.318967,41.4041282 C253.436503,41.4041282 252.79344,41.5707611 252.38976,41.9040321 C251.98608,42.237303 251.784243,42.690263 251.784243,43.2629258 C251.784243,43.563339 251.838222,43.809768 251.946183,44.0022203 C252.054144,44.1946725 252.220777,44.3613055 252.446087,44.5021242 C252.671397,44.6429429 252.960071,44.7649839 253.312118,44.868251 C253.664165,44.971518 254.079574,45.0747835 254.558357,45.1780506 C255.093468,45.2907055 255.574592,45.4174405 256.001742,45.5582592 C256.428892,45.6990779 256.792668,45.8750986 257.093081,46.0863267 C257.393495,46.2975547 257.623495,46.5533715 257.78309,46.8537848 C257.942684,47.154198 258.02248,47.5297089 258.02248,47.9803288 C258.02248,48.4403365 257.933296,48.8393169 257.754926,49.1772818 C257.576556,49.5152467 257.32778,49.7968798 257.008591,50.0221898 C256.689402,50.2474997 256.309197,50.4141327 255.867965,50.5220937 C255.426733,50.6300547 254.943263,50.6840344 254.417539,50.6840344 C252.868534,50.6840344 251.530776,50.2005641 250.404226,49.233609 L250.897089,48.4309464 C251.07546,48.6187046 251.289032,48.7970723 251.537811,48.9660548 C251.786591,49.1350372 252.06353,49.2828946 252.368637,49.4096315 C252.673745,49.5363683 252.99997,49.6349399 253.347323,49.7053493 C253.694675,49.7757586 254.060799,49.8109628 254.445703,49.8109628 C255.243676,49.8109628 255.865616,49.6677992 256.311541,49.3814679 C256.757467,49.0951365 256.980427,48.660952 256.980427,48.0789014 C256.980427,47.7691002 256.91706,47.5085895 256.790323,47.2973615 C256.663586,47.0861334 256.473483,46.9030718 256.22001,46.7481713 C255.966536,46.5932707 255.652046,46.4594949 255.276529,46.34684 C254.901013,46.234185 254.464481,46.1215317 253.966922,46.0088768 C253.441199,45.8868339 252.981198,45.760099 252.586905,45.6286682 C252.192613,45.4972374 251.859347,45.3329513 251.587098,45.1358052 C251.314848,44.938659 251.110664,44.7016177 250.974539,44.4246743 C250.838415,44.1477308 250.770353,43.807424 250.770353,43.4037438 C250.770353,42.943736 250.85719,42.5330209 251.030866,42.1715863 C251.204543,41.8101516 251.450972,41.5097429 251.770161,41.2703511 C252.08935,41.0309593 252.464861,40.8478977 252.896705,40.7211609 C253.328549,40.594424 253.807325,40.5310566 254.333049,40.5310566 C254.99959,40.5310566 255.593367,40.6319751 256.114396,40.8338153 C256.635425,41.0356554 257.107161,41.3196355 257.529617,41.6857642 L257.050836,42.474345 Z" id="PARA-ADOLESCENTES-MUJERES" fill="#509587"></path>
        </g>
    </g>
</svg>