<?xml version="1.0" encoding="UTF-8"?>
<svg width="85px" height="85px" viewBox="0 0 85 85" version="1.1" xmlns="http://www.w3.org/2000/svg" xmlns:xlink="http://www.w3.org/1999/xlink">
    <defs></defs>
    <g id="Desktop-HD" stroke="none" stroke-width="1" fill="none" fill-rule="evenodd" transform="translate(-604.000000, -1010.000000)">
        <g id="light-bulb" transform="translate(604.000000, 1010.365145)" fill="#509587" fill-rule="nonzero">
            <path d="M46.3142849,54.7350639 C47.090411,54.7350639 47.7176932,54.1063015 47.7176932,53.3316556 L47.7176932,33.6831163 L51.9280827,33.6831163 C55.7973649,33.6831163 58.9454535,30.5351922 58.9454535,26.6657456 C58.9454535,22.7964634 55.7975294,19.6483748 51.9280827,19.6483748 C48.0588006,19.6483748 44.910712,22.7962989 44.910712,26.6657456 L44.910712,30.8761351 L39.2969142,30.8761351 L39.2969142,26.6657456 C39.2969142,22.7964634 36.1489901,19.6483748 32.2795434,19.6483748 C28.4102612,19.6483748 25.2621727,22.7962989 25.2621727,26.6657456 C25.2621727,30.5350277 28.4100968,33.6831163 32.2795434,33.6831163 L36.489933,33.6831163 L36.489933,53.3316556 C36.489933,54.1063015 37.1186954,54.7350639 37.8933413,54.7350639 C38.6679872,54.7350639 39.2967497,54.1063015 39.2967497,53.3316556 L39.2967497,33.6831163 L44.9105476,33.6831163 L44.9105476,53.3316556 C44.9108765,54.1063015 45.5381588,54.7350639 46.3142849,54.7350639 Z M47.7176932,26.6657456 C47.7176932,24.3444394 49.6067766,22.455356 51.9280827,22.455356 C54.2493889,22.455356 56.1384723,24.3444394 56.1384723,26.6657456 C56.1384723,28.9870517 54.2493889,30.8761351 51.9280827,30.8761351 L47.7176932,30.8761351 L47.7176932,26.6657456 Z M36.4900974,30.8761351 L32.2797079,30.8761351 C29.9584017,30.8761351 28.0693184,28.9870517 28.0693184,26.6657456 C28.0693184,24.3444394 29.9584017,22.455356 32.2797079,22.455356 C34.6010141,22.455356 36.4900974,24.3444394 36.4900974,26.6657456 L36.4900974,30.8761351 Z" id="Shape"></path>
            <path d="M10.0207271,2.98510039 L15.3932499,7.49449337 C15.6570571,7.71619669 15.9771125,7.82293665 16.2956877,7.82293665 C16.6956747,7.82293665 17.0941815,7.65304085 17.3706528,7.32196608 C17.8688274,6.72823537 17.7916917,5.84273782 17.197961,5.34456321 L11.8256027,0.835005768 C11.231872,0.338146909 10.3476902,0.41544703 9.8481998,1.00769753 C9.34986072,1.60274398 9.42699638,2.48692579 10.0207271,2.98510039 Z" id="Shape"></path>
            <path d="M10.9287568,15.231742 L4.33670122,12.8333002 C3.60827094,12.569493 2.80418522,12.9441519 2.53741757,13.6725821 C2.27361035,14.4010124 2.64826923,15.2065784 3.37669951,15.4718658 L9.96875509,17.8703076 C10.1273026,17.9278715 10.2888105,17.9559956 10.4486737,17.9559956 C11.0213525,17.9559956 11.5601508,17.6009085 11.7678743,17.0311901 C12.0333262,16.3025954 11.6571871,15.4970294 10.9287568,15.231742 Z" id="Shape"></path>
            <path d="M67.9079912,7.82293665 C68.2250862,7.82293665 68.5451416,7.71488095 68.8076331,7.49449337 L74.1829519,2.98230443 C74.7766826,2.48412982 74.855134,1.59994802 74.3556436,1.00490156 C73.8615807,0.413966815 72.9760832,0.334035201 72.3795565,0.832209806 L67.0042377,5.34439875 C66.410507,5.84257335 66.3333713,6.72675515 66.8315459,7.32180161 C67.1080172,7.6517251 67.506524,7.82293665 67.9079912,7.82293665 Z" id="Shape"></path>
            <path d="M8.4179831,26.6685415 L1.40340835,26.6685415 C0.628762468,26.6685415 0,27.297304 0,28.0719499 C0,28.8465958 0.628762468,29.4753582 1.40340835,29.4753582 L8.4179831,29.4753582 C9.19262899,29.4753582 9.82139146,28.8465958 9.82139146,28.0719499 C9.82139146,27.297304 9.19262899,26.6685415 8.4179831,26.6685415 Z" id="Shape"></path>
            <path d="M81.6675771,13.668306 C81.4037699,12.9413559 80.5967238,12.5637366 79.8697737,12.8305042 L73.2762379,15.2304263 C72.5464919,15.4957137 72.1716685,16.3012796 72.436956,17.0297099 C72.6446795,17.5995927 73.182162,17.9531996 73.7561565,17.9531996 C73.914704,17.9531996 74.0775277,17.9265558 74.2347594,17.8675116 L80.8296109,15.4675896 C81.5580412,15.2023022 81.9341803,14.3967362 81.6675771,13.668306 Z" id="Shape"></path>
            <path d="M42.1038953,0 C26.6264376,0 14.034577,12.5918607 14.034577,28.0693184 C14.034577,39.9144928 18.6799852,48.7507189 28.6572927,55.877461 C28.7049885,55.911177 28.7752165,55.9532809 28.8271885,55.9812405 C28.9002124,56.0205485 30.4103607,56.8639421 30.7892958,59.2303126 C29.2048078,59.8352272 28.0693184,61.3608355 28.0693184,63.155843 C28.0693184,64.2337685 28.4763775,65.2176181 29.1442835,65.9628242 C28.4762131,66.7080302 28.0693184,67.6918798 28.0693184,68.7698053 C28.0693184,69.8477309 28.4763775,70.831416 29.1442835,71.5767865 C28.4762131,72.3219926 28.0693184,73.3058422 28.0693184,74.3837677 C28.0693184,76.7050739 29.9584017,78.5941572 32.2797079,78.5941572 C32.5926026,78.5941572 38.5126853,78.6733449 38.7461563,78.5 C39.0906986,78.2441881 39.6831163,77.6525 39.6831163,77.1907489 C39.6831163,76.8545503 39.9435474,76.7417673 39.7461563,76.5 C39.4887323,76.1847035 32.7181552,75.7873405 32.2797079,75.7873405 C31.5063778,75.7873405 30.8762996,75.1572623 30.8762996,74.3839322 C30.8762996,73.610602 31.5063778,72.9805238 32.2797079,72.9805238 L51.3142849,72.9805238 C52.090411,72.9805238 52.7176932,72.3517614 52.7176932,71.5771155 C52.7176932,70.8024696 52.090411,70.1737071 51.3142849,70.1737071 L32.2797079,70.1737071 C31.5063778,70.1737071 30.8762996,69.5436289 30.8762996,68.7702988 C30.8762996,67.9969686 31.5063778,67.3668904 32.2797079,67.3668904 L51.3142849,67.3668904 C52.090411,67.3668904 52.7176932,66.7381279 52.7176932,65.963482 C52.7176932,65.1888362 52.090411,64.5600737 51.3142849,64.5600737 L32.2797079,64.5600737 C31.5063778,64.5600737 30.8762996,63.9299955 30.8762996,63.1566653 C30.8762996,62.3833352 31.5063778,61.753257 32.2797079,61.753257 L51.3142849,61.753257 C52.090411,61.753257 52.7176932,61.1244945 52.7176932,60.3498486 C52.7176932,59.5752027 52.090411,58.9464403 51.3142849,58.9464403 L33.5877246,58.9464403 C33.0908658,55.412509 30.8004796,53.8813088 30.2264851,53.5500695 C20.9692201,46.9159101 16.8417226,39.0551457 16.8417226,28.0701407 C16.8417226,14.1408235 28.1747426,2.80780352 42.1040598,2.80780352 C56.033377,2.80780352 67.366397,14.1408235 67.366397,28.0701407 C67.366397,39.0549812 63.238735,46.9159101 53.9816345,53.5500695 C53.3360962,53.9219324 50.5248389,55.8097001 50.5248389,60.3498486 C50.5248389,61.1244945 51.1521211,61.753257 51.9282472,61.753257 C52.7028931,61.753257 53.3316556,62.3833352 53.3316556,63.1566653 C53.3316556,63.9299955 52.7028931,64.5600737 51.9282472,64.5600737 C51.1521211,64.5600737 50.5248389,65.1888362 50.5248389,65.963482 C50.5248389,66.7381279 51.1521211,67.3668904 51.9282472,67.3668904 C52.7028931,67.3668904 53.3316556,67.9969686 53.3316556,68.7702988 C53.3316556,69.5436289 52.7028931,70.1737071 51.9282472,70.1737071 C51.1521211,70.1737071 50.5248389,70.8024696 50.5248389,71.5771155 C50.5248389,72.3517614 51.1521211,72.9805238 51.9282472,72.9805238 C52.7028931,72.9805238 53.3316556,73.610602 53.3316556,74.3839322 C53.3316556,75.1839062 52.7282212,75.7873405 51.9282472,75.7873405 L32.2797079,75.7873405 C31.505062,75.7873405 36.4900974,76.416103 36.4900974,77.1907489 L36.4900974,79.9974011 C36.4900974,82.3187073 38.3791808,84.2077907 40.700487,84.2077907 L43.5074682,84.2077907 C45.8287743,84.2077907 47.7178577,82.3187073 47.7178577,79.9974011 L47.7178577,78.5939928 L51.9282472,78.5939928 C54.2903415,78.5939928 56.1386368,76.7442173 56.1386368,74.3836032 C56.1386368,73.3056777 55.7315776,72.3219926 55.0635072,71.5766221 C55.7315776,70.831416 56.1386368,69.8475664 56.1386368,68.7696409 C56.1386368,67.6917154 55.7315776,66.7080302 55.0635072,65.9626597 C55.7315776,65.2174536 56.1386368,64.233604 56.1386368,63.1556785 C56.1386368,61.3606711 55.0031473,59.8350627 53.4173436,59.2301482 C53.7962786,56.8639421 55.3049467,56.0218642 55.3625106,55.9896284 C55.4284625,55.9573926 55.4916183,55.9194005 55.550498,55.8772966 C65.5263252,48.7505544 70.1732137,39.9143283 70.1732137,28.0691539 C70.1732137,12.5918607 57.581353,0 42.1038953,0 Z M44.9108765,79.9974011 C44.9108765,80.7707313 44.282114,81.4008095 43.5074682,81.4008095 L40.700487,81.4008095 C39.9271568,81.4008095 39.2970786,80.7707313 39.2970786,79.9974011 L39.2970786,78.5939928 L44.9108765,78.5939928 L44.9108765,79.9974011 Z" id="Shape"></path>
            <path d="M82.8043823,26.6657456 L75.7870116,26.6657456 C75.0108855,26.6657456 74.3836032,27.294508 74.3836032,28.0691539 C74.3836032,28.8437998 75.0108855,29.4725623 75.7870116,29.4725623 L82.8043823,29.4725623 C83.5805084,29.4725623 84.2077907,28.8437998 84.2077907,28.0691539 C84.2077907,27.294508 83.5805084,26.6657456 82.8043823,26.6657456 Z" id="Shape"></path>
        </g>
    </g>
</svg>