<?xml version="1.0" encoding="UTF-8"?>
<svg width="63px" height="63px" viewBox="0 0 63 63" version="1.1" xmlns="http://www.w3.org/2000/svg" xmlns:xlink="http://www.w3.org/1999/xlink">
    <defs></defs>
<g>
	<path fill="#9B5EA5" d="M44.3,23.2c0.5,0,1-0.4,1-1v-1c0-0.5-0.4-1-1-1s-1,0.4-1,1v1C43.3,22.7,43.8,23.2,44.3,23.2z"/>
	<path fill="#9B5EA5" d="M61.3,46.5c1.2,0,2.1-1,2.1-2.1v-1.9c0-0.6-0.2-1.1-0.6-1.5c-0.4-0.4-0.9-0.6-1.5-0.6H46.5
		c-0.6,0-1.1,0.2-1.5,0.6c-0.4,0.4-0.6,0.9-0.6,1.5v1.9c0,1.2,1,2.1,2.1,2.1h0.2v1.9H31.3v-6.1c5.5-1.2,10.1-5.1,12-10.5
		c0.1-0.3,0.4-0.6,0.8-0.7c2.7-0.6,4.8-2.6,5.8-5l2.7-1.1c0,0.4,0,0.8,0,1.3c0,0.5,0.4,1,1,1c0.5,0,1-0.4,1-1c0-0.7,0-1.3,0-2
		l0.4-0.2c0.4-0.1,0.6-0.5,0.6-0.9c0-0.4-0.2-0.7-0.6-0.9l-0.4-0.2c0-1.2,0.1-2.5,0.2-3.8c0.2,0.1,0.4,0.1,0.7,0.2
		c0.3,0.1,0.7,0.1,1,0.1c2.8,0,5.3-2,5.8-4.9c0.1-0.4,0.1-0.8,0.1-1.3c0-0.4-0.3-0.7-0.6-0.8c-0.4-0.2-0.9-0.3-1.3-0.4
		c-1.6-0.3-3.1,0.1-4.4,1c-0.2,0.2-0.4,0.3-0.6,0.5c0.2-1.1,0.4-2.2,0.6-3.3c0.1,0,0.2,0.1,0.3,0.1c0.5,0.2,1,0.3,1.5,0.3
		c0.7,0,1.5-0.2,2.2-0.5c1.2-0.6,2-1.6,2.4-2.8c0.1-0.3,0.2-0.7,0.2-1.1c0-0.4-0.1-0.7-0.5-0.9c-0.3-0.2-0.7-0.4-1-0.5
		c-1.4-0.5-2.8-0.3-3.9,0.4c0.4-1.2,0.8-2.3,1.2-3.4c0.2-0.5,0-1.1-0.5-1.3c-0.5-0.2-1.1,0-1.3,0.5c-0.4,1-0.8,2-1.1,3.1
		c-0.6-0.9-1.5-1.6-2.6-2c-0.3-0.1-0.7-0.2-1.1-0.2c-0.4,0-0.7,0.1-0.9,0.5c-0.2,0.3-0.4,0.7-0.5,1c-0.4,1.2-0.3,2.6,0.3,3.7
		c0.6,1.2,1.6,2,2.8,2.4c0.2,0.1,0.3,0.1,0.5,0.1c-0.2,1-0.4,2.1-0.6,3.1c-0.9-1.3-2.3-2.3-3.9-2.5c-0.4-0.1-0.8-0.1-1.3-0.1
		c-0.4,0-0.7,0.3-0.8,0.6c-0.2,0.4-0.3,0.9-0.4,1.3c-0.5,3.2,1.6,6.3,4.8,6.8c0.3,0,0.6,0.1,0.9,0.1c-0.1,1.1-0.2,2.2-0.2,3.3
		l-3.1-1.4c-1.4-2.9-4.4-5-7.7-4.9c-2.4,0.1-4.7,1.2-6.2,3.1c-0.1,0.2-0.2,0.3-0.4,0.5c-3-6.7-8.9-14.8-20.3-18.1
		c-0.2-0.1-0.5,0-0.7,0.1C14.2,0.8,14,1,13.9,1.2c-0.1,0.2-1.3,5.1,0.7,10C11.9,10.8,9,10.7,6.1,11c-0.3,0-0.5,0.2-0.7,0.4
		c-0.2,0.2-0.2,0.5-0.2,0.7c0,0.3,1,7.7,7.3,11.3l-1.7,1.1c-0.2,0.2-0.4,0.4-0.4,0.7c0,0.3,0.1,0.6,0.2,0.8c0,0,0.4,0.4,1,1
		c-3.1,0.3-6.4,0.5-9.6,0.5c-0.3,0-0.6,0.2-0.8,0.4c-0.2,0.3-0.2,0.6-0.1,0.9l5.1,11.3c0.1,0.2,0.3,0.4,0.6,0.5
		c0.3,0.1,0.5,0,0.8-0.1c0,0,3-1.8,7.2-4c2.4,3,5.8,5.1,9.5,5.9v6.1H6.4c-0.1-0.3-0.3-0.6-0.5-0.8C5.5,47.2,5,47,4.4,47H2.1
		c-0.6,0-1.1,0.2-1.5,0.6c-0.4,0.4-0.6,0.9-0.6,1.5v5.2c0,0.6,0.2,1.1,0.6,1.5c0.4,0.4,0.9,0.6,1.5,0.6h2.3c0.6,0,1.1-0.2,1.5-0.6
		c0.2-0.2,0.4-0.5,0.5-0.8h38.3c0,0,0.1,0,0.1,0c0,0,0.1,0,0.1,0c0,0,0,0,0,0h1.8v1.9h-0.2c-0.6,0-1.1,0.2-1.5,0.6
		c-0.4,0.4-0.6,0.9-0.6,1.5V61c0,0.6,0.2,1.1,0.6,1.5c0.4,0.4,0.9,0.6,1.5,0.6h14.9c0,0,0,0,0,0c0.6,0,1.1-0.2,1.5-0.6
		c0.4-0.4,0.6-0.9,0.6-1.5v-1.9c0-0.6-0.2-1.1-0.6-1.5c-0.4-0.4-0.9-0.6-1.5-0.6h-0.2V46.5H61.3z M55.6,16.4c0.2-1,0.8-2,1.6-2.6
		c0.9-0.6,1.9-0.9,3-0.7c0.1,0,0.2,0,0.3,0.1c0,0.1,0,0.2,0,0.3C60,15.6,58,17,55.8,16.7c-0.1,0-0.2,0-0.3-0.1
		C55.6,16.5,55.6,16.5,55.6,16.4z M57,7.7c0.5-1.5,2.2-2.4,3.7-1.9c0,0,0,0,0,0c0,0,0,0,0,0c-0.2,0.7-0.8,1.3-1.5,1.7
		C58.5,7.9,57.7,8,57,7.7C57,7.7,57,7.7,57,7.7C57,7.7,57,7.7,57,7.7z M52.7,5.4c-0.4-0.7-0.4-1.5-0.2-2.2c0,0,0,0,0,0c0,0,0,0,0,0
		c1.5,0.5,2.4,2.2,1.9,3.7c0,0,0,0,0,0c0,0,0,0,0,0C53.6,6.6,53,6.1,52.7,5.4z M52.7,15.9c0,0.1,0,0.2-0.1,0.3c-0.1,0-0.2,0-0.3,0
		c-2.2-0.4-3.6-2.4-3.2-4.6c0-0.1,0-0.2,0.1-0.3c0.1,0,0.2,0,0.3,0C51.6,11.7,53.1,13.7,52.7,15.9z M52.1,23.2l-1.7,0.7
		c0-0.3,0-0.6,0-0.9c0-0.2,0-0.4,0-0.5L52.1,23.2z M46.5,58.9h14.9c0.1,0,0.1,0,0.1,0.1c0,0,0.1,0.1,0.1,0.1l0,1.9
		c0,0.1,0,0.1-0.1,0.1c0,0-0.1,0.1-0.1,0.1H46.5c-0.1,0-0.1,0-0.1-0.1c0,0-0.1-0.1-0.1-0.1v-1.9C46.3,59,46.4,58.9,46.5,58.9z
		 M44.8,53C44.7,53,44.7,53,44.8,53L6.5,53v-2.6h40.2V53L44.8,53C44.8,53,44.8,53,44.8,53z M48.6,56.9V46.5h10.5v10.4H48.6z
		 M61.5,44.4c0,0.1,0,0.1-0.1,0.1s-0.1,0.1-0.1,0.1H46.5c-0.1,0-0.2-0.1-0.2-0.2v-1.9c0-0.1,0.1-0.2,0.2-0.2h14.9
		c0.1,0,0.1,0,0.1,0.1c0,0,0.1,0.1,0.1,0.1L61.5,44.4z M4.5,54.4C4.5,54.4,4.5,54.4,4.5,54.4l-2.4,0c0,0-0.1,0-0.1,0
		c0,0,0-0.1,0-0.1v-5.2c0,0,0-0.1,0-0.1c0,0,0,0,0.1,0h2.3c0,0,0.1,0,0.1,0c0,0,0,0,0,0.1L4.5,54.4C4.6,54.4,4.5,54.4,4.5,54.4z
		 M15.6,2.7C26,6.1,31.4,13.9,34,20.1c-0.4,0.4-0.8,0.7-1.3,1.1c-0.8-0.8-1.7-1.7-2.7-2.6c-3.1-2.6-6.4-4.6-9.9-5.9
		c-1-0.4-2-0.7-3-1C15.1,8.3,15.4,4.5,15.6,2.7z M7.4,12.8c4.2-0.3,8.2,0.3,12,1.7c3.3,1.2,6.4,3.1,9.3,5.6c3.7,3.1,6,6.4,7,7.9
		c-5.8,2.8-11.5,3.2-16.8,1.1c-2.8-1.1-4.9-2.7-6-3.6l1.7-1.1c0.4,0.1,0.9,0.3,1.6,0.5c0.1,0,0.2,0,0.2,0c0.4,0,0.8-0.3,0.9-0.7
		c0.1-0.5-0.2-1-0.7-1.2c-1.1-0.3-1.8-0.5-1.8-0.6C9.7,20.1,7.9,15,7.4,12.8z M16,34.7c-0.3-0.4-0.8-0.5-1.2-0.3
		c-3.2,1.7-5.8,3.2-7.1,3.9l-4.1-9c3.5-0.1,6.9-0.3,10.3-0.7c1.1,0.8,2.5,1.6,4.2,2.2c2.1,0.8,4.7,1.5,7.8,1.5
		c3.4,0,7.3-0.8,11.6-3.1c0.2-0.1,0.4-0.3,0.5-0.6c0.1-0.2,0-0.5-0.1-0.7c-0.1-0.1-1.4-2.4-3.9-5.3c1.2-0.9,2.3-2,3.3-3.3
		c1.1-1.5,2.9-2.3,4.7-2.4c3.2-0.1,6.3,2.8,6.4,6c0.1,3-1.9,5.6-4.8,6.3c-1,0.2-1.9,0.9-2.2,1.9c-1.9,5.2-6.5,8.9-11.9,9.5h-0.7v0.1
		c-0.3,0-0.6,0-1,0c-0.3,0-0.6,0-0.9-0.1v-0.1h-0.8C22.1,40.2,18.4,38,16,34.7z M26.9,42.7c0.3,0,0.6,0.1,0.9,0.1c0.3,0,0.6,0,1,0
		v5.8h-1.9V42.7z"/>
</g>
</svg>
