<?xml version="1.0" encoding="utf-8"?>
<!-- Generator: Adobe Illustrator 21.1.0, SVG Export Plug-In . SVG Version: 6.00 Build 0)  -->
<svg version="1.1" id="Layer_1" xmlns="http://www.w3.org/2000/svg" xmlns:xlink="http://www.w3.org/1999/xlink" x="0px" y="0px"
	 viewBox="0 0 400 70" style="enable-background:new 0 0 400 70;" xml:space="preserve">
<style type="text/css">
	.st0{fill:#727273;}
</style>
<title>PRENSA</title>
<desc>Created with Sketch.</desc>
<g id="Desktop-HD" transform="translate(-817.000000, -1397.000000)">
	<g id="Page-1" transform="translate(152.000000, 1243.000000)">
		<path id="PRENSA" class="st0" d="M742.3,211.7v-45.4h18.8c2,0,3.8,0.4,5.4,1.2s3.1,1.9,4.3,3.3c1.2,1.3,2.1,2.9,2.8,4.6
			c0.7,1.7,1,3.4,1,5.2c0,1.9-0.3,3.7-1,5.4c-0.6,1.7-1.5,3.3-2.7,4.6c-1.2,1.3-2.5,2.4-4.1,3.2c-1.6,0.8-3.4,1.2-5.3,1.2h-14.7
			v16.8H742.3z M746.8,191h14.5c1.3,0,2.5-0.3,3.6-0.9s2-1.3,2.8-2.3c0.8-1,1.4-2.1,1.8-3.3c0.4-1.3,0.6-2.6,0.6-3.9
			c0-1.4-0.2-2.7-0.7-4s-1.2-2.4-2-3.3c-0.8-0.9-1.8-1.7-2.9-2.2s-2.3-0.8-3.6-0.8h-14.1V191z M782.1,211.7v-45.4h19.2
			c2,0,3.8,0.4,5.4,1.2c1.6,0.8,3.1,1.9,4.3,3.3c1.2,1.3,2.1,2.9,2.8,4.6c0.7,1.7,1,3.4,1,5.2c0,1.7-0.2,3.3-0.7,4.8
			c-0.5,1.5-1.2,2.9-2,4.1s-1.9,2.2-3.2,3.1c-1.2,0.8-2.6,1.4-4.2,1.7l11.1,17.5h-5.1L800,194.9h-13.4v16.8H782.1z M786.6,191h14.8
			c1.3,0,2.5-0.3,3.6-0.9s2-1.4,2.8-2.3s1.4-2.1,1.8-3.3c0.4-1.2,0.6-2.5,0.6-3.9s-0.2-2.7-0.7-3.9c-0.5-1.3-1.2-2.4-2-3.3
			c-0.8-0.9-1.8-1.7-2.9-2.2s-2.3-0.8-3.6-0.8h-14.5V191z M854.4,207.7v4h-30.5v-45.4h30v4h-25.5v16.4h22.2v3.8h-22.2v17.3H854.4z
			 M867.3,174.6v37.1h-4.5v-45.4h3.5l30.1,37.8v-37.8h4.5v45.4H897L867.3,174.6z M938.8,174.8c-1.3-1.5-3-2.6-5.1-3.5
			c-2.1-0.9-4.6-1.3-7.3-1.3c-4,0-6.9,0.8-8.8,2.3c-1.8,1.5-2.8,3.6-2.8,6.2c0,1.4,0.2,2.5,0.7,3.4c0.5,0.9,1.2,1.6,2.3,2.3
			c1,0.6,2.3,1.2,3.9,1.7c1.6,0.5,3.5,0.9,5.7,1.4c2.4,0.5,4.6,1.1,6.6,1.7s3.6,1.4,5,2.4c1.4,1,2.4,2.1,3.1,3.5s1.1,3.1,1.1,5.1
			c0,2.1-0.4,3.9-1.2,5.4s-1.9,2.8-3.4,3.8c-1.5,1-3.2,1.8-5.2,2.3c-2,0.5-4.2,0.7-6.6,0.7c-7,0-13.1-2.2-18.2-6.6l2.2-3.6
			c0.8,0.9,1.8,1.7,2.9,2.4c1.1,0.8,2.4,1.4,3.8,2c1.4,0.6,2.9,1,4.4,1.3c1.6,0.3,3.2,0.5,5,0.5c3.6,0,6.5-0.7,8.5-2
			c2-1.3,3-3.3,3-5.9c0-1.4-0.3-2.6-0.9-3.6c-0.6-1-1.4-1.8-2.6-2.5c-1.2-0.7-2.6-1.3-4.3-1.8c-1.7-0.5-3.7-1-6-1.5
			c-2.4-0.6-4.5-1.1-6.3-1.7c-1.8-0.6-3.3-1.3-4.5-2.2c-1.2-0.9-2.2-2-2.8-3.2c-0.6-1.3-0.9-2.8-0.9-4.6c0-2.1,0.4-4,1.2-5.6
			c0.8-1.6,1.9-3,3.4-4.1c1.5-1.1,3.2-1.9,5.1-2.5c2-0.6,4.1-0.9,6.5-0.9c3,0,5.7,0.5,8.1,1.4c2.4,0.9,4.5,2.2,6.4,3.9L938.8,174.8z
			 M965.2,166.3h3.8l18.9,45.4h-4.7l-5.9-14.2h-20.4l-5.8,14.2h-4.8L965.2,166.3z M976.2,194l-9.2-22.5l-9.3,22.5H976.2z"/>
	</g>
</g>
</svg>
