<?xml version="1.0" encoding="utf-8"?>
<!-- Generator: Adobe Illustrator 21.1.0, SVG Export Plug-In . SVG Version: 6.00 Build 0)  -->
<svg version="1.1" id="Layer_1" xmlns="http://www.w3.org/2000/svg" xmlns:xlink="http://www.w3.org/1999/xlink" x="0px" y="0px"
	 viewBox="0 0 400 70" style="enable-background:new 0 0 400 70;" xml:space="preserve">
<style type="text/css">
	.st0{fill:none;stroke:#727273;stroke-width:3.56;}
	.st1{fill:#519587;}
	.st2{fill:#429CD6;}
	.st3{fill:#9B5EA5;}
	.st4{fill:#727273;}
</style>
<title>Group 8</title>
<desc>Created with Sketch.</desc>
<g id="Desktop-HD" transform="translate(-152.000000, -1243.000000)">
	<g id="Page-1" transform="translate(152.000000, 1243.000000)">
		<g id="Group-8" transform="translate(0.279366, 0.550154)">
			<polygon id="Stroke-1" class="st0" points="266.3,59 303.2,11.3 340.2,59 			"/>
			<path id="Fill-2" class="st1" d="M292.1,11.2c0-6.1,5-11.1,11.1-11.1c6.1,0,11.1,5,11.1,11.1s-5,11.1-11.1,11.1
				C297.1,22.3,292.1,17.3,292.1,11.2"/>
			<path id="Fill-5" class="st2" d="M258,58.2c0-6.1,5-11.1,11.1-11.1c6.1,0,11.1,5,11.1,11.1c0,6.1-5,11.1-11.1,11.1
				C263,69.3,258,64.4,258,58.2"/>
			<path id="Fill-7" class="st3" d="M326.3,58.2c0-6.1,5-11.1,11.1-11.1c6.1,0,11.1,5,11.1,11.1c0,6.1-5,11.1-11.1,11.1
				C331.2,69.3,326.3,64.4,326.3,58.2"/>
			<path id="Fill-9" class="st4" d="M54.7,37.7h13.9c1.3,0,2.4-0.3,3.5-0.8c1-0.6,1.9-1.3,2.7-2.2c0.7-0.9,1.3-2,1.7-3.2
				c0.4-1.2,0.6-2.5,0.6-3.8c0-1.4-0.2-2.6-0.7-3.8c-0.5-1.2-1.1-2.3-1.9-3.2c-0.8-0.9-1.7-1.6-2.8-2.1s-2.2-0.8-3.4-0.8H54.7V37.7z
				 M50.5,57.6V14h18c1.9,0,3.6,0.4,5.2,1.2c1.6,0.8,2.9,1.8,4.1,3.1c1.1,1.3,2,2.7,2.7,4.4c0.6,1.6,0.9,3.3,0.9,5
				c0,1.8-0.3,3.5-0.9,5.2c-0.6,1.7-1.4,3.1-2.5,4.4c-1.1,1.3-2.4,2.3-4,3.1c-1.5,0.8-3.2,1.2-5.1,1.2H54.7v16.1H50.5z"/>
			<path id="Fill-12" class="st4" d="M106.2,54c2.7,0,5-0.5,6.8-1.6c1.8-1,3.3-2.4,4.4-4.1c1.1-1.7,1.8-3.6,2.3-5.8
				c0.4-2.2,0.6-4.4,0.6-6.6V14h4.3v22c0,2.9-0.3,5.7-1,8.4c-0.7,2.6-1.7,5-3.2,7c-1.5,2-3.3,3.6-5.7,4.8c-2.3,1.2-5.2,1.8-8.5,1.8
				c-3.5,0-6.4-0.6-8.7-1.9c-2.3-1.2-4.2-2.9-5.6-4.9c-1.4-2-2.5-4.4-3.1-7c-0.6-2.6-0.9-5.3-0.9-8.1V14h4.2v22
				c0,2.3,0.2,4.5,0.7,6.7c0.4,2.2,1.2,4.1,2.3,5.8c1.1,1.7,2.5,3,4.3,4C101.2,53.5,103.5,54,106.2,54"/>
			<polygon id="Fill-14" class="st4" points="173.5,57.6 173.5,21.8 157.6,49.5 155.1,49.5 139.1,21.8 139.1,57.6 134.9,57.6 
				134.9,14 139.3,14 156.3,43.8 173.4,14 177.7,14 177.7,57.6 			"/>
			<polygon id="Fill-16" class="st4" points="227.3,57.6 227.3,21.8 211.5,49.5 208.9,49.5 193,21.8 193,57.6 188.8,57.6 188.8,14 
				193.1,14 210.2,43.8 227.2,14 231.6,14 231.6,57.6 			"/>
		</g>
	</g>
</g>
</svg>
