<?xml version="1.0" encoding="UTF-8"?>
<svg width="63px" height="63px" viewBox="0 0 63 63" version="1.1" xmlns="http://www.w3.org/2000/svg" xmlns:xlink="http://www.w3.org/1999/xlink">
    <defs></defs>
<g>
			<path fill="none" stroke="#9B5EA5" stroke-width="2.325" d="M47.6,19.2c-9.3-7.3-22.8-5.6-30,3.7s-5.6,22.8,3.7,30s22.8,5.6,30-3.7"/>
			<path fill="none" stroke="#9B5EA5" stroke-width="2.325" d="M60.1,42c3.3-14.1-5.6-28.2-19.6-31.4S12.3,16.2,9.1,30.2s5.6,28.2,19.6,31.4"/>
			<path fill="none" stroke="#9B5EA5" stroke-width="2.325" stroke-linecap="square" d="M46.3,19.2l-25.6,33"/>
			<polygon fill="#9B5EA5" points="58.3,49.4 56.1,40.3 64.3,42.2 			"/>
			<path fill="#9B5EA5" d="M42.3,33.2H26.7c-0.7,0-1.4-0.7-1.4-1.4l0,0c0-0.7,0.7-1.4,1.4-1.4h15.6c0.7,0,1.4,0.7,1.4,1.4l0,0
				C43.7,32.5,43.1,33.2,42.3,33.2z"/>
			<path fill="#9B5EA5" d="M42.3,42.6H26.7c-0.7,0-1.4-0.7-1.4-1.4l0,0c0-0.7,0.7-1.4,1.4-1.4h15.6c0.7,0,1.4,0.7,1.4,1.4l0,0
				C43.7,41.9,43.1,42.6,42.3,42.6z"/>
		</g>
</svg>
