<?xml version="1.0" encoding="UTF-8"?>
<svg width="63px" height="63px" viewBox="0 0 63 63" version="1.1" xmlns="http://www.w3.org/2000/svg" xmlns:xlink="http://www.w3.org/1999/xlink">
    <defs></defs>
<g id="Desktop-HD" transform="translate(-650.000000, -1836.000000)">
	<g id="Group-4-Copy-4" transform="translate(604.000000, 1599.000000)">
		<g id="reducir" transform="translate(42.000000, 233.000000)">
			<path id="Oval-7" fill="none" stroke="#9B5EA5" stroke-width="2.5" d="M48.5,17.9c-10-7.8-24.5-6-32.3,4s-6,24.5,4,32.3s24.5,6,32.3-4"/>
			<path id="Oval-7_1_" fill="none" stroke="#9B5EA5" stroke-width="2.5" d="M61.9,42.5c3.5-15.2-6-30.3-21.1-33.8S10.5,14.7,7,29.8s6,30.3,21.1,33.8"/>
			<path id="Line-8" fill="none" stroke="#9B5EA5" stroke-width="2.5" stroke-linecap="square" d="M47,18L19.5,53.5"/>
			<polygon id="Triangle-2" fill="#9B5EA5" points="59.9,50.4 57.6,40.6 66.4,42.7 			"/>
			<path fill="#9B5EA5" d="M42.8,33H26c-0.8,0-1.5-0.7-1.5-1.5l0,0c0-0.8,0.7-1.5,1.5-1.5h16.8c0.8,0,1.5,0.7,1.5,1.5l0,0
				C44.3,32.3,43.6,33,42.8,33z"/>
			<path fill="#9B5EA5" d="M42.8,43.1H26c-0.8,0-1.5-0.7-1.5-1.5l0,0c0-0.8,0.7-1.5,1.5-1.5h16.8c0.8,0,1.5,0.7,1.5,1.5l0,0
				C44.3,42.4,43.6,43.1,42.8,43.1z"/>
		</g>
	</g>
</g>
</svg>
