<?xml version="1.0" encoding="UTF-8"?>
<svg width="63px" height="63px" viewBox="0 0 63 63" version="1.1" xmlns="http://www.w3.org/2000/svg" xmlns:xlink="http://www.w3.org/1999/xlink">
    <defs></defs>
<g id="Desktop-HD" transform="translate(-648.000000, -2012.000000)">
	<g id="Group-4-Copy-4" transform="translate(604.000000, 1599.000000)">
		<g id="trabajo" transform="translate(44.179681, 413.000000)">
			<path id="Shape" fill="#9B5EA5" d="M61.4,60.2h-1V24.5c0-0.7-0.5-1.2-1.2-1.2h-9.8c-0.7,0-1.2,0.5-1.2,1.2v27.9
				c0,0.7,0.5,1.2,1.2,1.2c0.7,0,1.2-0.5,1.2-1.2V25.7H58v34.5h-7.3V49.6c0-0.7-0.5-1.2-1.2-1.2c-0.7,0-1.2,0.5-1.2,1.2v10.6h-2.9
				V32.5c0-0.7-0.5-1.2-1.2-1.2h-9.8c-0.7,0-1.2,0.5-1.2,1.2v27.7h-3.4V40.1c0-0.7-0.5-1.2-1.2-1.2h-9.8c-0.7,0-1.2,0.5-1.2,1.2
				v20.1h-2.9V48c0-0.7-0.5-1.2-1.2-1.2H3.4c-0.7,0-1.2,0.5-1.2,1.2v12.2h-1c-0.7,0-1.2,0.5-1.2,1.2s0.5,1.2,1.2,1.2h60.2
				c0.7,0,1.2-0.5,1.2-1.2S62.1,60.2,61.4,60.2z M12,60.2H4.6v-11H12V60.2z M27.2,60.2h-7.3V41.4h7.3V60.2z M42.8,60.2h-7.3V33.8
				h7.3V60.2z"/>
			<path id="Shape_1_" fill="#9B5EA5" d="M53.4,0c-5.1,0-9.3,4.2-9.3,9.3s4.2,9.3,9.3,9.3c5.1,0,9.3-4.2,9.3-9.3S58.5,0,53.4,0z
				 M53.4,12.9c-0.8,0-1.4-0.5-1.4-1.1c0-0.7-0.5-1.2-1.2-1.2c-0.7,0-1.2,0.5-1.2,1.2c0,1.6,1.1,2.9,2.6,3.4V16
				c-3.2-0.6-5.6-3.4-5.6-6.7s2.4-6.2,5.6-6.7v1C50.6,4,49.5,5.4,49.5,7c0,2,1.7,3.6,3.8,3.6c0.8,0,1.4,0.5,1.4,1.1
				S54.1,12.9,53.4,12.9z M54.6,16v-0.9c1.5-0.5,2.6-1.8,2.6-3.4c0-2-1.7-3.6-3.8-3.6C52.6,8.1,52,7.6,52,7s0.6-1.1,1.4-1.1
				s1.4,0.5,1.4,1.1c0,0.7,0.5,1.2,1.2,1.2c0.7,0,1.2-0.5,1.2-1.2c0-1.6-1.1-2.9-2.6-3.4v-1c3.2,0.6,5.6,3.4,5.6,6.7
				S57.8,15.5,54.6,16z"/>
			<path id="Shape_2_" fill="#9B5EA5" d="M43.6,15.8h-4.8c-0.7,0-1.2,0.5-1.2,1.2c0,0.7,0.5,1.2,1.2,1.2h1.8L27.5,31.4l-6.6-6.6
				c-0.5-0.5-1.3-0.5-1.7,0L5.8,38c-0.5,0.5-0.5,1.3,0,1.7c0.2,0.2,0.6,0.4,0.9,0.4c0.3,0,0.6-0.1,0.9-0.4L20,27.3l6.6,6.6
				c0.5,0.5,1.3,0.5,1.7,0L42.3,20v1.8c0,0.7,0.5,1.2,1.2,1.2c0.7,0,1.2-0.5,1.2-1.2v-4.8C44.8,16.4,44.2,15.8,43.6,15.8z"/>
		</g>
	</g>
</g>
</svg>
