<?xml version="1.0" encoding="UTF-8"?>
<svg width="63px" height="63px" viewBox="0 0 63 63" version="1.1" xmlns="http://www.w3.org/2000/svg" xmlns:xlink="http://www.w3.org/1999/xlink">
    <defs></defs>
<g>
			<path fill="#9B5EA5" d="M59.3,58.2h-0.9V25c0-0.7-0.5-1.1-1.1-1.1h-9.1c-0.7,0-1.1,0.5-1.1,1.1v25.9
				c0,0.7,0.5,1.1,1.1,1.1s1.1-0.5,1.1-1.1V26.1h6.9v32.1h-6.8v-9.9c0-0.7-0.5-1.1-1.1-1.1s-1.1,0.5-1.1,1.1v9.9h-2.7V32.4
				c0-0.7-0.5-1.1-1.1-1.1h-9.1c-0.7,0-1.1,0.5-1.1,1.1v25.8h-3.2V39.5c0-0.7-0.5-1.1-1.1-1.1h-9.1c-0.7,0-1.1,0.5-1.1,1.1v18.7
				h-2.7V46.8c0-0.7-0.5-1.1-1.1-1.1H5.4c-0.7,0-1.1,0.5-1.1,1.1v11.3H3.3c-0.7,0-1.1,0.5-1.1,1.1s0.5,1.1,1.1,1.1h56
				c0.7,0,1.1-0.5,1.1-1.1S59.9,58.2,59.3,58.2z M13.4,58.2H6.5V47.9h6.9V58.2z M27.5,58.2h-6.8V40.7h6.8V58.2z M42,58.2h-6.8V33.6
				H42V58.2z"/>
			<path fill="#9B5EA5" d="M51.9,2.2c-4.7,0-8.6,3.9-8.6,8.6s3.9,8.6,8.6,8.6s8.6-3.9,8.6-8.6S56.6,2.2,51.9,2.2z
				 M51.9,14.2c-0.7,0-1.3-0.5-1.3-1c0-0.7-0.5-1.1-1.1-1.1s-1.1,0.5-1.1,1.1c0,1.5,1,2.7,2.4,3.2v0.7c-3-0.6-5.2-3.2-5.2-6.2
				s2.2-5.8,5.2-6.2v0.9c-1.5,0.4-2.5,1.7-2.5,3.2c0,1.9,1.6,3.3,3.5,3.3c0.7,0,1.3,0.5,1.3,1C53.1,13.6,52.5,14.2,51.9,14.2z
				 M53,17.1v-0.8c1.4-0.5,2.4-1.7,2.4-3.2c0-1.9-1.6-3.3-3.5-3.3c-0.7,0-1.3-0.5-1.3-1s0.6-1,1.3-1s1.3,0.5,1.3,1
				c0,0.7,0.5,1.1,1.1,1.1c0.7,0,1.1-0.5,1.1-1.1c0-1.5-1-2.7-2.4-3.2V4.6c3,0.6,5.2,3.2,5.2,6.2S55.9,16.6,53,17.1z"/>
			<path fill="#9B5EA5" d="M42.7,16.9h-4.5c-0.7,0-1.1,0.5-1.1,1.1s0.5,1.1,1.1,1.1H40L27.8,31.4l-6.1-6.1
				c-0.5-0.5-1.2-0.5-1.6,0L7.6,37.5c-0.5,0.5-0.5,1.2,0,1.6c0.2,0.2,0.6,0.4,0.8,0.4s0.6-0.1,0.8-0.4l11.5-11.5l6.1,6.1
				c0.5,0.5,1.2,0.5,1.6,0l13-12.9v1.7c0,0.7,0.5,1.1,1.1,1.1c0.7,0,1.1-0.5,1.1-1.1V18C43.9,17.4,43.3,16.9,42.7,16.9z"/>
		</g>
</svg>
